<?xml version="1.0" encoding="utf-8" standalone="no"?>
<!DOCTYPE svg PUBLIC "-//W3C//DTD SVG 1.1//EN"
  "http://www.w3.org/Graphics/SVG/1.1/DTD/svg11.dtd">
<svg xmlns:xlink="http://www.w3.org/1999/xlink" width="864pt" height="432pt" viewBox="0 0 864 432" xmlns="http://www.w3.org/2000/svg" version="1.1">
 <metadata>
  <rdf:RDF xmlns:dc="http://purl.org/dc/elements/1.1/" xmlns:cc="http://creativecommons.org/ns#" xmlns:rdf="http://www.w3.org/1999/02/22-rdf-syntax-ns#">
   <cc:Work>
    <dc:type rdf:resource="http://purl.org/dc/dcmitype/StillImage"/>
    <dc:date>2023-04-15T20:37:39.004946</dc:date>
    <dc:format>image/svg+xml</dc:format>
    <dc:creator>
     <cc:Agent>
      <dc:title>Matplotlib v3.6.2, https://matplotlib.org/</dc:title>
     </cc:Agent>
    </dc:creator>
   </cc:Work>
  </rdf:RDF>
 </metadata>
 <defs>
  <style type="text/css">*{stroke-linejoin: round; stroke-linecap: butt}</style>
 </defs>
 <g id="figure_1">
  <g id="patch_1">
   <path d="M 0 432 
L 864 432 
L 864 0 
L 0 0 
z
" style="fill: #ffffff"/>
  </g>
  <g id="axes_1">
   <g id="patch_2">
    <path d="M 67.81 404.12 
L 796.19 404.12 
L 796.19 10.8 
L 67.81 10.8 
z
" style="fill: #ffffff"/>
   </g>
   <g id="matplotlib.axis_1">
    <g id="xtick_1">
     <g id="line2d_1">
      <path d="M 120.393583 404.12 
L 120.393583 10.8 
" clip-path="url(#p90f0a6a88e)" style="fill: none; stroke: #b0b0b0; stroke-width: 0.8; stroke-linecap: square"/>
     </g>
     <g id="line2d_2">
      <defs>
       <path id="m98559e6769" d="M 0 0 
L 0 3.5 
" style="stroke: #000000; stroke-width: 0.8"/>
      </defs>
      <g>
       <use xlink:href="#m98559e6769" x="120.393583" y="404.12" style="stroke: #000000; stroke-width: 0.8"/>
      </g>
     </g>
     <g id="text_1">
      <!-- [0.00, 0.11) -->
      <g transform="translate(91.04827 418.718437) scale(0.1 -0.1)">
       <defs>
        <path id="DejaVuSans-5b" d="M 550 4863 
L 1875 4863 
L 1875 4416 
L 1125 4416 
L 1125 -397 
L 1875 -397 
L 1875 -844 
L 550 -844 
L 550 4863 
z
" transform="scale(0.015625)"/>
        <path id="DejaVuSans-30" d="M 2034 4250 
Q 1547 4250 1301 3770 
Q 1056 3291 1056 2328 
Q 1056 1369 1301 889 
Q 1547 409 2034 409 
Q 2525 409 2770 889 
Q 3016 1369 3016 2328 
Q 3016 3291 2770 3770 
Q 2525 4250 2034 4250 
z
M 2034 4750 
Q 2819 4750 3233 4129 
Q 3647 3509 3647 2328 
Q 3647 1150 3233 529 
Q 2819 -91 2034 -91 
Q 1250 -91 836 529 
Q 422 1150 422 2328 
Q 422 3509 836 4129 
Q 1250 4750 2034 4750 
z
" transform="scale(0.015625)"/>
        <path id="DejaVuSans-2e" d="M 684 794 
L 1344 794 
L 1344 0 
L 684 0 
L 684 794 
z
" transform="scale(0.015625)"/>
        <path id="DejaVuSans-2c" d="M 750 794 
L 1409 794 
L 1409 256 
L 897 -744 
L 494 -744 
L 750 256 
L 750 794 
z
" transform="scale(0.015625)"/>
        <path id="DejaVuSans-20" transform="scale(0.015625)"/>
        <path id="DejaVuSans-31" d="M 794 531 
L 1825 531 
L 1825 4091 
L 703 3866 
L 703 4441 
L 1819 4666 
L 2450 4666 
L 2450 531 
L 3481 531 
L 3481 0 
L 794 0 
L 794 531 
z
" transform="scale(0.015625)"/>
        <path id="DejaVuSans-29" d="M 513 4856 
L 1013 4856 
Q 1481 4119 1714 3412 
Q 1947 2706 1947 2009 
Q 1947 1309 1714 600 
Q 1481 -109 1013 -844 
L 513 -844 
Q 928 -128 1133 580 
Q 1338 1288 1338 2009 
Q 1338 2731 1133 3434 
Q 928 4138 513 4856 
z
" transform="scale(0.015625)"/>
       </defs>
       <use xlink:href="#DejaVuSans-5b"/>
       <use xlink:href="#DejaVuSans-30" x="39.013672"/>
       <use xlink:href="#DejaVuSans-2e" x="102.636719"/>
       <use xlink:href="#DejaVuSans-30" x="134.423828"/>
       <use xlink:href="#DejaVuSans-30" x="198.046875"/>
       <use xlink:href="#DejaVuSans-2c" x="261.669922"/>
       <use xlink:href="#DejaVuSans-20" x="293.457031"/>
       <use xlink:href="#DejaVuSans-30" x="325.244141"/>
       <use xlink:href="#DejaVuSans-2e" x="388.867188"/>
       <use xlink:href="#DejaVuSans-31" x="420.654297"/>
       <use xlink:href="#DejaVuSans-31" x="484.277344"/>
       <use xlink:href="#DejaVuSans-29" x="547.900391"/>
      </g>
     </g>
    </g>
    <g id="xtick_2">
     <g id="line2d_3">
      <path d="M 198.295187 404.12 
L 198.295187 10.8 
" clip-path="url(#p90f0a6a88e)" style="fill: none; stroke: #b0b0b0; stroke-width: 0.8; stroke-linecap: square"/>
     </g>
     <g id="line2d_4">
      <g>
       <use xlink:href="#m98559e6769" x="198.295187" y="404.12" style="stroke: #000000; stroke-width: 0.8"/>
      </g>
     </g>
     <g id="text_2">
      <!-- [0.11, 0.22) -->
      <g transform="translate(168.949875 418.718437) scale(0.1 -0.1)">
       <defs>
        <path id="DejaVuSans-32" d="M 1228 531 
L 3431 531 
L 3431 0 
L 469 0 
L 469 531 
Q 828 903 1448 1529 
Q 2069 2156 2228 2338 
Q 2531 2678 2651 2914 
Q 2772 3150 2772 3378 
Q 2772 3750 2511 3984 
Q 2250 4219 1831 4219 
Q 1534 4219 1204 4116 
Q 875 4013 500 3803 
L 500 4441 
Q 881 4594 1212 4672 
Q 1544 4750 1819 4750 
Q 2544 4750 2975 4387 
Q 3406 4025 3406 3419 
Q 3406 3131 3298 2873 
Q 3191 2616 2906 2266 
Q 2828 2175 2409 1742 
Q 1991 1309 1228 531 
z
" transform="scale(0.015625)"/>
       </defs>
       <use xlink:href="#DejaVuSans-5b"/>
       <use xlink:href="#DejaVuSans-30" x="39.013672"/>
       <use xlink:href="#DejaVuSans-2e" x="102.636719"/>
       <use xlink:href="#DejaVuSans-31" x="134.423828"/>
       <use xlink:href="#DejaVuSans-31" x="198.046875"/>
       <use xlink:href="#DejaVuSans-2c" x="261.669922"/>
       <use xlink:href="#DejaVuSans-20" x="293.457031"/>
       <use xlink:href="#DejaVuSans-30" x="325.244141"/>
       <use xlink:href="#DejaVuSans-2e" x="388.867188"/>
       <use xlink:href="#DejaVuSans-32" x="420.654297"/>
       <use xlink:href="#DejaVuSans-32" x="484.277344"/>
       <use xlink:href="#DejaVuSans-29" x="547.900391"/>
      </g>
     </g>
    </g>
    <g id="xtick_3">
     <g id="line2d_5">
      <path d="M 276.196791 404.12 
L 276.196791 10.8 
" clip-path="url(#p90f0a6a88e)" style="fill: none; stroke: #b0b0b0; stroke-width: 0.8; stroke-linecap: square"/>
     </g>
     <g id="line2d_6">
      <g>
       <use xlink:href="#m98559e6769" x="276.196791" y="404.12" style="stroke: #000000; stroke-width: 0.8"/>
      </g>
     </g>
     <g id="text_3">
      <!-- [0.22, 0.33) -->
      <g transform="translate(246.851479 418.718437) scale(0.1 -0.1)">
       <defs>
        <path id="DejaVuSans-33" d="M 2597 2516 
Q 3050 2419 3304 2112 
Q 3559 1806 3559 1356 
Q 3559 666 3084 287 
Q 2609 -91 1734 -91 
Q 1441 -91 1130 -33 
Q 819 25 488 141 
L 488 750 
Q 750 597 1062 519 
Q 1375 441 1716 441 
Q 2309 441 2620 675 
Q 2931 909 2931 1356 
Q 2931 1769 2642 2001 
Q 2353 2234 1838 2234 
L 1294 2234 
L 1294 2753 
L 1863 2753 
Q 2328 2753 2575 2939 
Q 2822 3125 2822 3475 
Q 2822 3834 2567 4026 
Q 2313 4219 1838 4219 
Q 1578 4219 1281 4162 
Q 984 4106 628 3988 
L 628 4550 
Q 988 4650 1302 4700 
Q 1616 4750 1894 4750 
Q 2613 4750 3031 4423 
Q 3450 4097 3450 3541 
Q 3450 3153 3228 2886 
Q 3006 2619 2597 2516 
z
" transform="scale(0.015625)"/>
       </defs>
       <use xlink:href="#DejaVuSans-5b"/>
       <use xlink:href="#DejaVuSans-30" x="39.013672"/>
       <use xlink:href="#DejaVuSans-2e" x="102.636719"/>
       <use xlink:href="#DejaVuSans-32" x="134.423828"/>
       <use xlink:href="#DejaVuSans-32" x="198.046875"/>
       <use xlink:href="#DejaVuSans-2c" x="261.669922"/>
       <use xlink:href="#DejaVuSans-20" x="293.457031"/>
       <use xlink:href="#DejaVuSans-30" x="325.244141"/>
       <use xlink:href="#DejaVuSans-2e" x="388.867188"/>
       <use xlink:href="#DejaVuSans-33" x="420.654297"/>
       <use xlink:href="#DejaVuSans-33" x="484.277344"/>
       <use xlink:href="#DejaVuSans-29" x="547.900391"/>
      </g>
     </g>
    </g>
    <g id="xtick_4">
     <g id="line2d_7">
      <path d="M 354.098396 404.12 
L 354.098396 10.8 
" clip-path="url(#p90f0a6a88e)" style="fill: none; stroke: #b0b0b0; stroke-width: 0.8; stroke-linecap: square"/>
     </g>
     <g id="line2d_8">
      <g>
       <use xlink:href="#m98559e6769" x="354.098396" y="404.12" style="stroke: #000000; stroke-width: 0.8"/>
      </g>
     </g>
     <g id="text_4">
      <!-- [0.33, 0.44) -->
      <g transform="translate(324.753083 418.718437) scale(0.1 -0.1)">
       <defs>
        <path id="DejaVuSans-34" d="M 2419 4116 
L 825 1625 
L 2419 1625 
L 2419 4116 
z
M 2253 4666 
L 3047 4666 
L 3047 1625 
L 3713 1625 
L 3713 1100 
L 3047 1100 
L 3047 0 
L 2419 0 
L 2419 1100 
L 313 1100 
L 313 1709 
L 2253 4666 
z
" transform="scale(0.015625)"/>
       </defs>
       <use xlink:href="#DejaVuSans-5b"/>
       <use xlink:href="#DejaVuSans-30" x="39.013672"/>
       <use xlink:href="#DejaVuSans-2e" x="102.636719"/>
       <use xlink:href="#DejaVuSans-33" x="134.423828"/>
       <use xlink:href="#DejaVuSans-33" x="198.046875"/>
       <use xlink:href="#DejaVuSans-2c" x="261.669922"/>
       <use xlink:href="#DejaVuSans-20" x="293.457031"/>
       <use xlink:href="#DejaVuSans-30" x="325.244141"/>
       <use xlink:href="#DejaVuSans-2e" x="388.867188"/>
       <use xlink:href="#DejaVuSans-34" x="420.654297"/>
       <use xlink:href="#DejaVuSans-34" x="484.277344"/>
       <use xlink:href="#DejaVuSans-29" x="547.900391"/>
      </g>
     </g>
    </g>
    <g id="xtick_5">
     <g id="line2d_9">
      <path d="M 432 404.12 
L 432 10.8 
" clip-path="url(#p90f0a6a88e)" style="fill: none; stroke: #b0b0b0; stroke-width: 0.8; stroke-linecap: square"/>
     </g>
     <g id="line2d_10">
      <g>
       <use xlink:href="#m98559e6769" x="432" y="404.12" style="stroke: #000000; stroke-width: 0.8"/>
      </g>
     </g>
     <g id="text_5">
      <!-- [0.44, 0.56) -->
      <g transform="translate(402.654688 418.718437) scale(0.1 -0.1)">
       <defs>
        <path id="DejaVuSans-35" d="M 691 4666 
L 3169 4666 
L 3169 4134 
L 1269 4134 
L 1269 2991 
Q 1406 3038 1543 3061 
Q 1681 3084 1819 3084 
Q 2600 3084 3056 2656 
Q 3513 2228 3513 1497 
Q 3513 744 3044 326 
Q 2575 -91 1722 -91 
Q 1428 -91 1123 -41 
Q 819 9 494 109 
L 494 744 
Q 775 591 1075 516 
Q 1375 441 1709 441 
Q 2250 441 2565 725 
Q 2881 1009 2881 1497 
Q 2881 1984 2565 2268 
Q 2250 2553 1709 2553 
Q 1456 2553 1204 2497 
Q 953 2441 691 2322 
L 691 4666 
z
" transform="scale(0.015625)"/>
        <path id="DejaVuSans-36" d="M 2113 2584 
Q 1688 2584 1439 2293 
Q 1191 2003 1191 1497 
Q 1191 994 1439 701 
Q 1688 409 2113 409 
Q 2538 409 2786 701 
Q 3034 994 3034 1497 
Q 3034 2003 2786 2293 
Q 2538 2584 2113 2584 
z
M 3366 4563 
L 3366 3988 
Q 3128 4100 2886 4159 
Q 2644 4219 2406 4219 
Q 1781 4219 1451 3797 
Q 1122 3375 1075 2522 
Q 1259 2794 1537 2939 
Q 1816 3084 2150 3084 
Q 2853 3084 3261 2657 
Q 3669 2231 3669 1497 
Q 3669 778 3244 343 
Q 2819 -91 2113 -91 
Q 1303 -91 875 529 
Q 447 1150 447 2328 
Q 447 3434 972 4092 
Q 1497 4750 2381 4750 
Q 2619 4750 2861 4703 
Q 3103 4656 3366 4563 
z
" transform="scale(0.015625)"/>
       </defs>
       <use xlink:href="#DejaVuSans-5b"/>
       <use xlink:href="#DejaVuSans-30" x="39.013672"/>
       <use xlink:href="#DejaVuSans-2e" x="102.636719"/>
       <use xlink:href="#DejaVuSans-34" x="134.423828"/>
       <use xlink:href="#DejaVuSans-34" x="198.046875"/>
       <use xlink:href="#DejaVuSans-2c" x="261.669922"/>
       <use xlink:href="#DejaVuSans-20" x="293.457031"/>
       <use xlink:href="#DejaVuSans-30" x="325.244141"/>
       <use xlink:href="#DejaVuSans-2e" x="388.867188"/>
       <use xlink:href="#DejaVuSans-35" x="420.654297"/>
       <use xlink:href="#DejaVuSans-36" x="484.277344"/>
       <use xlink:href="#DejaVuSans-29" x="547.900391"/>
      </g>
     </g>
    </g>
    <g id="xtick_6">
     <g id="line2d_11">
      <path d="M 509.901604 404.12 
L 509.901604 10.8 
" clip-path="url(#p90f0a6a88e)" style="fill: none; stroke: #b0b0b0; stroke-width: 0.8; stroke-linecap: square"/>
     </g>
     <g id="line2d_12">
      <g>
       <use xlink:href="#m98559e6769" x="509.901604" y="404.12" style="stroke: #000000; stroke-width: 0.8"/>
      </g>
     </g>
     <g id="text_6">
      <!-- [0.56, 0.67) -->
      <g transform="translate(480.556292 418.718437) scale(0.1 -0.1)">
       <defs>
        <path id="DejaVuSans-37" d="M 525 4666 
L 3525 4666 
L 3525 4397 
L 1831 0 
L 1172 0 
L 2766 4134 
L 525 4134 
L 525 4666 
z
" transform="scale(0.015625)"/>
       </defs>
       <use xlink:href="#DejaVuSans-5b"/>
       <use xlink:href="#DejaVuSans-30" x="39.013672"/>
       <use xlink:href="#DejaVuSans-2e" x="102.636719"/>
       <use xlink:href="#DejaVuSans-35" x="134.423828"/>
       <use xlink:href="#DejaVuSans-36" x="198.046875"/>
       <use xlink:href="#DejaVuSans-2c" x="261.669922"/>
       <use xlink:href="#DejaVuSans-20" x="293.457031"/>
       <use xlink:href="#DejaVuSans-30" x="325.244141"/>
       <use xlink:href="#DejaVuSans-2e" x="388.867188"/>
       <use xlink:href="#DejaVuSans-36" x="420.654297"/>
       <use xlink:href="#DejaVuSans-37" x="484.277344"/>
       <use xlink:href="#DejaVuSans-29" x="547.900391"/>
      </g>
     </g>
    </g>
    <g id="xtick_7">
     <g id="line2d_13">
      <path d="M 587.803209 404.12 
L 587.803209 10.8 
" clip-path="url(#p90f0a6a88e)" style="fill: none; stroke: #b0b0b0; stroke-width: 0.8; stroke-linecap: square"/>
     </g>
     <g id="line2d_14">
      <g>
       <use xlink:href="#m98559e6769" x="587.803209" y="404.12" style="stroke: #000000; stroke-width: 0.8"/>
      </g>
     </g>
     <g id="text_7">
      <!-- [0.67, 0.78) -->
      <g transform="translate(558.457896 418.718437) scale(0.1 -0.1)">
       <defs>
        <path id="DejaVuSans-38" d="M 2034 2216 
Q 1584 2216 1326 1975 
Q 1069 1734 1069 1313 
Q 1069 891 1326 650 
Q 1584 409 2034 409 
Q 2484 409 2743 651 
Q 3003 894 3003 1313 
Q 3003 1734 2745 1975 
Q 2488 2216 2034 2216 
z
M 1403 2484 
Q 997 2584 770 2862 
Q 544 3141 544 3541 
Q 544 4100 942 4425 
Q 1341 4750 2034 4750 
Q 2731 4750 3128 4425 
Q 3525 4100 3525 3541 
Q 3525 3141 3298 2862 
Q 3072 2584 2669 2484 
Q 3125 2378 3379 2068 
Q 3634 1759 3634 1313 
Q 3634 634 3220 271 
Q 2806 -91 2034 -91 
Q 1263 -91 848 271 
Q 434 634 434 1313 
Q 434 1759 690 2068 
Q 947 2378 1403 2484 
z
M 1172 3481 
Q 1172 3119 1398 2916 
Q 1625 2713 2034 2713 
Q 2441 2713 2670 2916 
Q 2900 3119 2900 3481 
Q 2900 3844 2670 4047 
Q 2441 4250 2034 4250 
Q 1625 4250 1398 4047 
Q 1172 3844 1172 3481 
z
" transform="scale(0.015625)"/>
       </defs>
       <use xlink:href="#DejaVuSans-5b"/>
       <use xlink:href="#DejaVuSans-30" x="39.013672"/>
       <use xlink:href="#DejaVuSans-2e" x="102.636719"/>
       <use xlink:href="#DejaVuSans-36" x="134.423828"/>
       <use xlink:href="#DejaVuSans-37" x="198.046875"/>
       <use xlink:href="#DejaVuSans-2c" x="261.669922"/>
       <use xlink:href="#DejaVuSans-20" x="293.457031"/>
       <use xlink:href="#DejaVuSans-30" x="325.244141"/>
       <use xlink:href="#DejaVuSans-2e" x="388.867188"/>
       <use xlink:href="#DejaVuSans-37" x="420.654297"/>
       <use xlink:href="#DejaVuSans-38" x="484.277344"/>
       <use xlink:href="#DejaVuSans-29" x="547.900391"/>
      </g>
     </g>
    </g>
    <g id="xtick_8">
     <g id="line2d_15">
      <path d="M 665.704813 404.12 
L 665.704813 10.8 
" clip-path="url(#p90f0a6a88e)" style="fill: none; stroke: #b0b0b0; stroke-width: 0.8; stroke-linecap: square"/>
     </g>
     <g id="line2d_16">
      <g>
       <use xlink:href="#m98559e6769" x="665.704813" y="404.12" style="stroke: #000000; stroke-width: 0.8"/>
      </g>
     </g>
     <g id="text_8">
      <!-- [0.78, 0.89) -->
      <g transform="translate(636.3595 418.718437) scale(0.1 -0.1)">
       <defs>
        <path id="DejaVuSans-39" d="M 703 97 
L 703 672 
Q 941 559 1184 500 
Q 1428 441 1663 441 
Q 2288 441 2617 861 
Q 2947 1281 2994 2138 
Q 2813 1869 2534 1725 
Q 2256 1581 1919 1581 
Q 1219 1581 811 2004 
Q 403 2428 403 3163 
Q 403 3881 828 4315 
Q 1253 4750 1959 4750 
Q 2769 4750 3195 4129 
Q 3622 3509 3622 2328 
Q 3622 1225 3098 567 
Q 2575 -91 1691 -91 
Q 1453 -91 1209 -44 
Q 966 3 703 97 
z
M 1959 2075 
Q 2384 2075 2632 2365 
Q 2881 2656 2881 3163 
Q 2881 3666 2632 3958 
Q 2384 4250 1959 4250 
Q 1534 4250 1286 3958 
Q 1038 3666 1038 3163 
Q 1038 2656 1286 2365 
Q 1534 2075 1959 2075 
z
" transform="scale(0.015625)"/>
       </defs>
       <use xlink:href="#DejaVuSans-5b"/>
       <use xlink:href="#DejaVuSans-30" x="39.013672"/>
       <use xlink:href="#DejaVuSans-2e" x="102.636719"/>
       <use xlink:href="#DejaVuSans-37" x="134.423828"/>
       <use xlink:href="#DejaVuSans-38" x="198.046875"/>
       <use xlink:href="#DejaVuSans-2c" x="261.669922"/>
       <use xlink:href="#DejaVuSans-20" x="293.457031"/>
       <use xlink:href="#DejaVuSans-30" x="325.244141"/>
       <use xlink:href="#DejaVuSans-2e" x="388.867188"/>
       <use xlink:href="#DejaVuSans-38" x="420.654297"/>
       <use xlink:href="#DejaVuSans-39" x="484.277344"/>
       <use xlink:href="#DejaVuSans-29" x="547.900391"/>
      </g>
     </g>
    </g>
    <g id="xtick_9">
     <g id="line2d_17">
      <path d="M 743.606417 404.12 
L 743.606417 10.8 
" clip-path="url(#p90f0a6a88e)" style="fill: none; stroke: #b0b0b0; stroke-width: 0.8; stroke-linecap: square"/>
     </g>
     <g id="line2d_18">
      <g>
       <use xlink:href="#m98559e6769" x="743.606417" y="404.12" style="stroke: #000000; stroke-width: 0.8"/>
      </g>
     </g>
     <g id="text_9">
      <!-- [0.89, 1.00] -->
      <g transform="translate(714.261105 418.718437) scale(0.1 -0.1)">
       <defs>
        <path id="DejaVuSans-5d" d="M 1947 4863 
L 1947 -844 
L 622 -844 
L 622 -397 
L 1369 -397 
L 1369 4416 
L 622 4416 
L 622 4863 
L 1947 4863 
z
" transform="scale(0.015625)"/>
       </defs>
       <use xlink:href="#DejaVuSans-5b"/>
       <use xlink:href="#DejaVuSans-30" x="39.013672"/>
       <use xlink:href="#DejaVuSans-2e" x="102.636719"/>
       <use xlink:href="#DejaVuSans-38" x="134.423828"/>
       <use xlink:href="#DejaVuSans-39" x="198.046875"/>
       <use xlink:href="#DejaVuSans-2c" x="261.669922"/>
       <use xlink:href="#DejaVuSans-20" x="293.457031"/>
       <use xlink:href="#DejaVuSans-31" x="325.244141"/>
       <use xlink:href="#DejaVuSans-2e" x="388.867188"/>
       <use xlink:href="#DejaVuSans-30" x="420.654297"/>
       <use xlink:href="#DejaVuSans-30" x="484.277344"/>
       <use xlink:href="#DejaVuSans-5d" x="547.900391"/>
      </g>
     </g>
    </g>
   </g>
   <g id="matplotlib.axis_2">
    <g id="ytick_1">
     <g id="line2d_19">
      <path d="M 67.81 329.393964 
L 796.19 329.393964 
" clip-path="url(#p90f0a6a88e)" style="fill: none; stroke: #b0b0b0; stroke-width: 0.8; stroke-linecap: square"/>
     </g>
     <g id="line2d_20">
      <defs>
       <path id="m232df02a13" d="M 0 0 
L -10 0 
" style="stroke: #9400d3; stroke-width: 1.5"/>
      </defs>
      <g>
       <use xlink:href="#m232df02a13" x="67.81" y="329.393964" style="fill: #9400d3; stroke: #9400d3; stroke-width: 1.5"/>
      </g>
     </g>
     <g id="text_10">
      <!-- 0.2 -->
      <g style="fill: #9400d3" transform="translate(32.045625 334.71287) scale(0.14 -0.14)">
       <use xlink:href="#DejaVuSans-30"/>
       <use xlink:href="#DejaVuSans-2e" x="63.623047"/>
       <use xlink:href="#DejaVuSans-32" x="95.410156"/>
      </g>
     </g>
    </g>
    <g id="ytick_2">
     <g id="line2d_21">
      <path d="M 67.81 249.27939 
L 796.19 249.27939 
" clip-path="url(#p90f0a6a88e)" style="fill: none; stroke: #b0b0b0; stroke-width: 0.8; stroke-linecap: square"/>
     </g>
     <g id="line2d_22">
      <g>
       <use xlink:href="#m232df02a13" x="67.81" y="249.27939" style="fill: #9400d3; stroke: #9400d3; stroke-width: 1.5"/>
      </g>
     </g>
     <g id="text_11">
      <!-- 0.4 -->
      <g style="fill: #9400d3" transform="translate(32.045625 254.598297) scale(0.14 -0.14)">
       <use xlink:href="#DejaVuSans-30"/>
       <use xlink:href="#DejaVuSans-2e" x="63.623047"/>
       <use xlink:href="#DejaVuSans-34" x="95.410156"/>
      </g>
     </g>
    </g>
    <g id="ytick_3">
     <g id="line2d_23">
      <path d="M 67.81 169.164817 
L 796.19 169.164817 
" clip-path="url(#p90f0a6a88e)" style="fill: none; stroke: #b0b0b0; stroke-width: 0.8; stroke-linecap: square"/>
     </g>
     <g id="line2d_24">
      <g>
       <use xlink:href="#m232df02a13" x="67.81" y="169.164817" style="fill: #9400d3; stroke: #9400d3; stroke-width: 1.5"/>
      </g>
     </g>
     <g id="text_12">
      <!-- 0.6 -->
      <g style="fill: #9400d3" transform="translate(32.045625 174.483723) scale(0.14 -0.14)">
       <use xlink:href="#DejaVuSans-30"/>
       <use xlink:href="#DejaVuSans-2e" x="63.623047"/>
       <use xlink:href="#DejaVuSans-36" x="95.410156"/>
      </g>
     </g>
    </g>
    <g id="ytick_4">
     <g id="line2d_25">
      <path d="M 67.81 89.050244 
L 796.19 89.050244 
" clip-path="url(#p90f0a6a88e)" style="fill: none; stroke: #b0b0b0; stroke-width: 0.8; stroke-linecap: square"/>
     </g>
     <g id="line2d_26">
      <g>
       <use xlink:href="#m232df02a13" x="67.81" y="89.050244" style="fill: #9400d3; stroke: #9400d3; stroke-width: 1.5"/>
      </g>
     </g>
     <g id="text_13">
      <!-- 0.8 -->
      <g style="fill: #9400d3" transform="translate(32.045625 94.36915) scale(0.14 -0.14)">
       <use xlink:href="#DejaVuSans-30"/>
       <use xlink:href="#DejaVuSans-2e" x="63.623047"/>
       <use xlink:href="#DejaVuSans-38" x="95.410156"/>
      </g>
     </g>
    </g>
    <g id="text_14">
     <!-- yLabel -->
     <g transform="translate(24.302187 237.068594) rotate(-90) scale(0.18 -0.18)">
      <defs>
       <path id="DejaVuSans-79" d="M 2059 -325 
Q 1816 -950 1584 -1140 
Q 1353 -1331 966 -1331 
L 506 -1331 
L 506 -850 
L 844 -850 
Q 1081 -850 1212 -737 
Q 1344 -625 1503 -206 
L 1606 56 
L 191 3500 
L 800 3500 
L 1894 763 
L 2988 3500 
L 3597 3500 
L 2059 -325 
z
" transform="scale(0.015625)"/>
       <path id="DejaVuSans-4c" d="M 628 4666 
L 1259 4666 
L 1259 531 
L 3531 531 
L 3531 0 
L 628 0 
L 628 4666 
z
" transform="scale(0.015625)"/>
       <path id="DejaVuSans-61" d="M 2194 1759 
Q 1497 1759 1228 1600 
Q 959 1441 959 1056 
Q 959 750 1161 570 
Q 1363 391 1709 391 
Q 2188 391 2477 730 
Q 2766 1069 2766 1631 
L 2766 1759 
L 2194 1759 
z
M 3341 1997 
L 3341 0 
L 2766 0 
L 2766 531 
Q 2569 213 2275 61 
Q 1981 -91 1556 -91 
Q 1019 -91 701 211 
Q 384 513 384 1019 
Q 384 1609 779 1909 
Q 1175 2209 1959 2209 
L 2766 2209 
L 2766 2266 
Q 2766 2663 2505 2880 
Q 2244 3097 1772 3097 
Q 1472 3097 1187 3025 
Q 903 2953 641 2809 
L 641 3341 
Q 956 3463 1253 3523 
Q 1550 3584 1831 3584 
Q 2591 3584 2966 3190 
Q 3341 2797 3341 1997 
z
" transform="scale(0.015625)"/>
       <path id="DejaVuSans-62" d="M 3116 1747 
Q 3116 2381 2855 2742 
Q 2594 3103 2138 3103 
Q 1681 3103 1420 2742 
Q 1159 2381 1159 1747 
Q 1159 1113 1420 752 
Q 1681 391 2138 391 
Q 2594 391 2855 752 
Q 3116 1113 3116 1747 
z
M 1159 2969 
Q 1341 3281 1617 3432 
Q 1894 3584 2278 3584 
Q 2916 3584 3314 3078 
Q 3713 2572 3713 1747 
Q 3713 922 3314 415 
Q 2916 -91 2278 -91 
Q 1894 -91 1617 61 
Q 1341 213 1159 525 
L 1159 0 
L 581 0 
L 581 4863 
L 1159 4863 
L 1159 2969 
z
" transform="scale(0.015625)"/>
       <path id="DejaVuSans-65" d="M 3597 1894 
L 3597 1613 
L 953 1613 
Q 991 1019 1311 708 
Q 1631 397 2203 397 
Q 2534 397 2845 478 
Q 3156 559 3463 722 
L 3463 178 
Q 3153 47 2828 -22 
Q 2503 -91 2169 -91 
Q 1331 -91 842 396 
Q 353 884 353 1716 
Q 353 2575 817 3079 
Q 1281 3584 2069 3584 
Q 2775 3584 3186 3129 
Q 3597 2675 3597 1894 
z
M 3022 2063 
Q 3016 2534 2758 2815 
Q 2500 3097 2075 3097 
Q 1594 3097 1305 2825 
Q 1016 2553 972 2059 
L 3022 2063 
z
" transform="scale(0.015625)"/>
       <path id="DejaVuSans-6c" d="M 603 4863 
L 1178 4863 
L 1178 0 
L 603 0 
L 603 4863 
z
" transform="scale(0.015625)"/>
      </defs>
      <use xlink:href="#DejaVuSans-79"/>
      <use xlink:href="#DejaVuSans-4c" x="59.179688"/>
      <use xlink:href="#DejaVuSans-61" x="114.892578"/>
      <use xlink:href="#DejaVuSans-62" x="176.171875"/>
      <use xlink:href="#DejaVuSans-65" x="239.648438"/>
      <use xlink:href="#DejaVuSans-6c" x="301.171875"/>
     </g>
    </g>
   </g>
   <g id="line2d_27">
    <path d="M 120.393583 386.241818 
L 198.295187 347.021365 
L 276.196791 347.011703 
L 354.098396 259.477928 
L 432 169.702192 
L 509.901604 168.718174 
L 587.803209 116.291625 
L 665.704813 62.541875 
L 743.606417 28.678182 
" clip-path="url(#p90f0a6a88e)" style="fill: none; stroke: #9400d3; stroke-width: 1.5; stroke-linecap: square"/>
    <defs>
     <path id="med4b6fb560" d="M 0 3 
C 0.795609 3 1.55874 2.683901 2.12132 2.12132 
C 2.683901 1.55874 3 0.795609 3 0 
C 3 -0.795609 2.683901 -1.55874 2.12132 -2.12132 
C 1.55874 -2.683901 0.795609 -3 0 -3 
C -0.795609 -3 -1.55874 -2.683901 -2.12132 -2.12132 
C -2.683901 -1.55874 -3 -0.795609 -3 0 
C -3 0.795609 -2.683901 1.55874 -2.12132 2.12132 
C -1.55874 2.683901 -0.795609 3 0 3 
z
" style="stroke: #9400d3"/>
    </defs>
    <g clip-path="url(#p90f0a6a88e)">
     <use xlink:href="#med4b6fb560" x="120.393583" y="386.241818" style="fill: #9400d3; stroke: #9400d3"/>
     <use xlink:href="#med4b6fb560" x="198.295187" y="347.021365" style="fill: #9400d3; stroke: #9400d3"/>
     <use xlink:href="#med4b6fb560" x="276.196791" y="347.011703" style="fill: #9400d3; stroke: #9400d3"/>
     <use xlink:href="#med4b6fb560" x="354.098396" y="259.477928" style="fill: #9400d3; stroke: #9400d3"/>
     <use xlink:href="#med4b6fb560" x="432" y="169.702192" style="fill: #9400d3; stroke: #9400d3"/>
     <use xlink:href="#med4b6fb560" x="509.901604" y="168.718174" style="fill: #9400d3; stroke: #9400d3"/>
     <use xlink:href="#med4b6fb560" x="587.803209" y="116.291625" style="fill: #9400d3; stroke: #9400d3"/>
     <use xlink:href="#med4b6fb560" x="665.704813" y="62.541875" style="fill: #9400d3; stroke: #9400d3"/>
     <use xlink:href="#med4b6fb560" x="743.606417" y="28.678182" style="fill: #9400d3; stroke: #9400d3"/>
    </g>
   </g>
   <g id="patch_3">
    <path d="M 67.81 404.12 
L 67.81 10.8 
" style="fill: none; stroke: #000000; stroke-width: 0.8; stroke-linejoin: miter; stroke-linecap: square"/>
   </g>
   <g id="patch_4">
    <path d="M 796.19 404.12 
L 796.19 10.8 
" style="fill: none; stroke: #000000; stroke-width: 0.8; stroke-linejoin: miter; stroke-linecap: square"/>
   </g>
   <g id="patch_5">
    <path d="M 67.81 404.12 
L 796.19 404.12 
" style="fill: none; stroke: #000000; stroke-width: 0.8; stroke-linejoin: miter; stroke-linecap: square"/>
   </g>
   <g id="patch_6">
    <path d="M 67.81 10.8 
L 796.19 10.8 
" style="fill: none; stroke: #000000; stroke-width: 0.8; stroke-linejoin: miter; stroke-linecap: square"/>
   </g>
   <g id="legend_1">
    <g id="patch_7">
     <path d="M 80.41 78.04125 
L 194.569375 78.04125 
Q 198.169375 78.04125 198.169375 74.44125 
L 198.169375 23.4 
Q 198.169375 19.8 194.569375 19.8 
L 80.41 19.8 
Q 76.81 19.8 76.81 23.4 
L 76.81 74.44125 
Q 76.81 78.04125 80.41 78.04125 
z
" style="fill: #ffffff; opacity: 0.8; stroke: #cccccc; stroke-linejoin: miter"/>
    </g>
    <g id="line2d_28">
     <path d="M 84.01 34.377188 
L 102.01 34.377188 
L 120.01 34.377188 
" style="fill: none; stroke: #9400d3; stroke-width: 1.5; stroke-linecap: square"/>
     <g>
      <use xlink:href="#med4b6fb560" x="102.01" y="34.377188" style="fill: #9400d3; stroke: #9400d3"/>
     </g>
    </g>
    <g id="text_15">
     <!-- REAL -->
     <g transform="translate(134.41 40.677188) scale(0.18 -0.18)">
      <defs>
       <path id="DejaVuSans-52" d="M 2841 2188 
Q 3044 2119 3236 1894 
Q 3428 1669 3622 1275 
L 4263 0 
L 3584 0 
L 2988 1197 
Q 2756 1666 2539 1819 
Q 2322 1972 1947 1972 
L 1259 1972 
L 1259 0 
L 628 0 
L 628 4666 
L 2053 4666 
Q 2853 4666 3247 4331 
Q 3641 3997 3641 3322 
Q 3641 2881 3436 2590 
Q 3231 2300 2841 2188 
z
M 1259 4147 
L 1259 2491 
L 2053 2491 
Q 2509 2491 2742 2702 
Q 2975 2913 2975 3322 
Q 2975 3731 2742 3939 
Q 2509 4147 2053 4147 
L 1259 4147 
z
" transform="scale(0.015625)"/>
       <path id="DejaVuSans-45" d="M 628 4666 
L 3578 4666 
L 3578 4134 
L 1259 4134 
L 1259 2753 
L 3481 2753 
L 3481 2222 
L 1259 2222 
L 1259 531 
L 3634 531 
L 3634 0 
L 628 0 
L 628 4666 
z
" transform="scale(0.015625)"/>
       <path id="DejaVuSans-41" d="M 2188 4044 
L 1331 1722 
L 3047 1722 
L 2188 4044 
z
M 1831 4666 
L 2547 4666 
L 4325 0 
L 3669 0 
L 3244 1197 
L 1141 1197 
L 716 0 
L 50 0 
L 1831 4666 
z
" transform="scale(0.015625)"/>
      </defs>
      <use xlink:href="#DejaVuSans-52"/>
      <use xlink:href="#DejaVuSans-45" x="69.482422"/>
      <use xlink:href="#DejaVuSans-41" x="132.666016"/>
      <use xlink:href="#DejaVuSans-4c" x="201.074219"/>
     </g>
    </g>
    <g id="patch_8">
     <path d="M 84.01 67.097812 
L 120.01 67.097812 
L 120.01 54.497812 
L 84.01 54.497812 
z
" style="fill: #808080; opacity: 0.5"/>
    </g>
    <g id="text_16">
     <!--  RMSE -->
     <g transform="translate(134.41 67.097812) scale(0.18 -0.18)">
      <defs>
       <path id="DejaVuSans-4d" d="M 628 4666 
L 1569 4666 
L 2759 1491 
L 3956 4666 
L 4897 4666 
L 4897 0 
L 4281 0 
L 4281 4097 
L 3078 897 
L 2444 897 
L 1241 4097 
L 1241 0 
L 628 0 
L 628 4666 
z
" transform="scale(0.015625)"/>
       <path id="DejaVuSans-53" d="M 3425 4513 
L 3425 3897 
Q 3066 4069 2747 4153 
Q 2428 4238 2131 4238 
Q 1616 4238 1336 4038 
Q 1056 3838 1056 3469 
Q 1056 3159 1242 3001 
Q 1428 2844 1947 2747 
L 2328 2669 
Q 3034 2534 3370 2195 
Q 3706 1856 3706 1288 
Q 3706 609 3251 259 
Q 2797 -91 1919 -91 
Q 1588 -91 1214 -16 
Q 841 59 441 206 
L 441 856 
Q 825 641 1194 531 
Q 1563 422 1919 422 
Q 2459 422 2753 634 
Q 3047 847 3047 1241 
Q 3047 1584 2836 1778 
Q 2625 1972 2144 2069 
L 1759 2144 
Q 1053 2284 737 2584 
Q 422 2884 422 3419 
Q 422 4038 858 4394 
Q 1294 4750 2059 4750 
Q 2388 4750 2728 4690 
Q 3069 4631 3425 4513 
z
" transform="scale(0.015625)"/>
      </defs>
      <use xlink:href="#DejaVuSans-20"/>
      <use xlink:href="#DejaVuSans-52" x="31.787109"/>
      <use xlink:href="#DejaVuSans-4d" x="101.269531"/>
      <use xlink:href="#DejaVuSans-53" x="187.548828"/>
      <use xlink:href="#DejaVuSans-45" x="251.025391"/>
     </g>
    </g>
   </g>
  </g>
  <g id="axes_2">
   <g id="patch_9">
    <path d="M 100.918182 404.12 
L 139.868984 404.12 
L 139.868984 130.654127 
L 100.918182 130.654127 
z
" clip-path="url(#p90f0a6a88e)" style="fill: #808080; opacity: 0.5"/>
   </g>
   <g id="patch_10">
    <path d="M 178.819786 404.12 
L 217.770588 404.12 
L 217.770588 396.170029 
L 178.819786 396.170029 
z
" clip-path="url(#p90f0a6a88e)" style="fill: #808080; opacity: 0.5"/>
   </g>
   <g id="patch_11">
    <path d="M 256.72139 404.12 
L 295.672193 404.12 
L 295.672193 29.529524 
L 256.72139 29.529524 
z
" clip-path="url(#p90f0a6a88e)" style="fill: #808080; opacity: 0.5"/>
   </g>
   <g id="patch_12">
    <path d="M 334.622995 404.12 
L 373.573797 404.12 
L 373.573797 82.620961 
L 334.622995 82.620961 
z
" clip-path="url(#p90f0a6a88e)" style="fill: #808080; opacity: 0.5"/>
   </g>
   <g id="patch_13">
    <path d="M 412.524599 404.12 
L 451.475401 404.12 
L 451.475401 322.112163 
L 412.524599 322.112163 
z
" clip-path="url(#p90f0a6a88e)" style="fill: #808080; opacity: 0.5"/>
   </g>
   <g id="patch_14">
    <path d="M 490.426203 404.12 
L 529.377005 404.12 
L 529.377005 333.897081 
L 490.426203 333.897081 
z
" clip-path="url(#p90f0a6a88e)" style="fill: #808080; opacity: 0.5"/>
   </g>
   <g id="patch_15">
    <path d="M 568.327807 404.12 
L 607.27861 404.12 
L 607.27861 333.287043 
L 568.327807 333.287043 
z
" clip-path="url(#p90f0a6a88e)" style="fill: #808080; opacity: 0.5"/>
   </g>
   <g id="patch_16">
    <path d="M 646.229412 404.12 
L 685.180214 404.12 
L 685.180214 286.618104 
L 646.229412 286.618104 
z
" clip-path="url(#p90f0a6a88e)" style="fill: #808080; opacity: 0.5"/>
   </g>
   <g id="patch_17">
    <path d="M 724.131016 404.12 
L 763.081818 404.12 
L 763.081818 201.452957 
L 724.131016 201.452957 
z
" clip-path="url(#p90f0a6a88e)" style="fill: #808080; opacity: 0.5"/>
   </g>
   <g id="matplotlib.axis_3">
    <g id="ytick_5">
     <g id="line2d_29">
      <defs>
       <path id="ma9bf8b06a8" d="M 0 0 
L 10 0 
" style="stroke: #808080; stroke-width: 1.5"/>
      </defs>
      <g>
       <use xlink:href="#ma9bf8b06a8" x="796.19" y="404.12" style="fill: #808080; stroke: #808080; stroke-width: 1.5"/>
      </g>
     </g>
     <g id="text_17">
      <!-- 0.0 -->
      <g style="fill: #808080" transform="translate(809.69 409.438906) scale(0.14 -0.14)">
       <use xlink:href="#DejaVuSans-30"/>
       <use xlink:href="#DejaVuSans-2e" x="63.623047"/>
       <use xlink:href="#DejaVuSans-30" x="95.410156"/>
      </g>
     </g>
    </g>
    <g id="ytick_6">
     <g id="line2d_30">
      <g>
       <use xlink:href="#ma9bf8b06a8" x="796.19" y="326.877672" style="fill: #808080; stroke: #808080; stroke-width: 1.5"/>
      </g>
     </g>
     <g id="text_18">
      <!-- 0.2 -->
      <g style="fill: #808080" transform="translate(809.69 332.196578) scale(0.14 -0.14)">
       <use xlink:href="#DejaVuSans-30"/>
       <use xlink:href="#DejaVuSans-2e" x="63.623047"/>
       <use xlink:href="#DejaVuSans-32" x="95.410156"/>
      </g>
     </g>
    </g>
    <g id="ytick_7">
     <g id="line2d_31">
      <g>
       <use xlink:href="#ma9bf8b06a8" x="796.19" y="249.635343" style="fill: #808080; stroke: #808080; stroke-width: 1.5"/>
      </g>
     </g>
     <g id="text_19">
      <!-- 0.4 -->
      <g style="fill: #808080" transform="translate(809.69 254.95425) scale(0.14 -0.14)">
       <use xlink:href="#DejaVuSans-30"/>
       <use xlink:href="#DejaVuSans-2e" x="63.623047"/>
       <use xlink:href="#DejaVuSans-34" x="95.410156"/>
      </g>
     </g>
    </g>
    <g id="ytick_8">
     <g id="line2d_32">
      <g>
       <use xlink:href="#ma9bf8b06a8" x="796.19" y="172.393015" style="fill: #808080; stroke: #808080; stroke-width: 1.5"/>
      </g>
     </g>
     <g id="text_20">
      <!-- 0.6 -->
      <g style="fill: #808080" transform="translate(809.69 177.711921) scale(0.14 -0.14)">
       <use xlink:href="#DejaVuSans-30"/>
       <use xlink:href="#DejaVuSans-2e" x="63.623047"/>
       <use xlink:href="#DejaVuSans-36" x="95.410156"/>
      </g>
     </g>
    </g>
    <g id="ytick_9">
     <g id="line2d_33">
      <g>
       <use xlink:href="#ma9bf8b06a8" x="796.19" y="95.150687" style="fill: #808080; stroke: #808080; stroke-width: 1.5"/>
      </g>
     </g>
     <g id="text_21">
      <!-- 0.8 -->
      <g style="fill: #808080" transform="translate(809.69 100.469593) scale(0.14 -0.14)">
       <use xlink:href="#DejaVuSans-30"/>
       <use xlink:href="#DejaVuSans-2e" x="63.623047"/>
       <use xlink:href="#DejaVuSans-38" x="95.410156"/>
      </g>
     </g>
    </g>
    <g id="ytick_10">
     <g id="line2d_34">
      <g>
       <use xlink:href="#ma9bf8b06a8" x="796.19" y="17.908358" style="fill: #808080; stroke: #808080; stroke-width: 1.5"/>
      </g>
     </g>
     <g id="text_22">
      <!-- 1.0 -->
      <g style="fill: #808080" transform="translate(809.69 23.227265) scale(0.14 -0.14)">
       <use xlink:href="#DejaVuSans-31"/>
       <use xlink:href="#DejaVuSans-2e" x="63.623047"/>
       <use xlink:href="#DejaVuSans-30" x="95.410156"/>
      </g>
     </g>
    </g>
    <g id="text_23">
     <!-- Metric -->
     <g transform="translate(849.631562 235.440156) rotate(-90) scale(0.18 -0.18)">
      <defs>
       <path id="DejaVuSans-74" d="M 1172 4494 
L 1172 3500 
L 2356 3500 
L 2356 3053 
L 1172 3053 
L 1172 1153 
Q 1172 725 1289 603 
Q 1406 481 1766 481 
L 2356 481 
L 2356 0 
L 1766 0 
Q 1100 0 847 248 
Q 594 497 594 1153 
L 594 3053 
L 172 3053 
L 172 3500 
L 594 3500 
L 594 4494 
L 1172 4494 
z
" transform="scale(0.015625)"/>
       <path id="DejaVuSans-72" d="M 2631 2963 
Q 2534 3019 2420 3045 
Q 2306 3072 2169 3072 
Q 1681 3072 1420 2755 
Q 1159 2438 1159 1844 
L 1159 0 
L 581 0 
L 581 3500 
L 1159 3500 
L 1159 2956 
Q 1341 3275 1631 3429 
Q 1922 3584 2338 3584 
Q 2397 3584 2469 3576 
Q 2541 3569 2628 3553 
L 2631 2963 
z
" transform="scale(0.015625)"/>
       <path id="DejaVuSans-69" d="M 603 3500 
L 1178 3500 
L 1178 0 
L 603 0 
L 603 3500 
z
M 603 4863 
L 1178 4863 
L 1178 4134 
L 603 4134 
L 603 4863 
z
" transform="scale(0.015625)"/>
       <path id="DejaVuSans-63" d="M 3122 3366 
L 3122 2828 
Q 2878 2963 2633 3030 
Q 2388 3097 2138 3097 
Q 1578 3097 1268 2742 
Q 959 2388 959 1747 
Q 959 1106 1268 751 
Q 1578 397 2138 397 
Q 2388 397 2633 464 
Q 2878 531 3122 666 
L 3122 134 
Q 2881 22 2623 -34 
Q 2366 -91 2075 -91 
Q 1284 -91 818 406 
Q 353 903 353 1747 
Q 353 2603 823 3093 
Q 1294 3584 2113 3584 
Q 2378 3584 2631 3529 
Q 2884 3475 3122 3366 
z
" transform="scale(0.015625)"/>
      </defs>
      <use xlink:href="#DejaVuSans-4d"/>
      <use xlink:href="#DejaVuSans-65" x="86.279297"/>
      <use xlink:href="#DejaVuSans-74" x="147.802734"/>
      <use xlink:href="#DejaVuSans-72" x="187.011719"/>
      <use xlink:href="#DejaVuSans-69" x="228.125"/>
      <use xlink:href="#DejaVuSans-63" x="255.908203"/>
     </g>
    </g>
   </g>
   <g id="patch_18">
    <path d="M 67.81 404.12 
L 67.81 10.8 
" style="fill: none; stroke: #000000; stroke-width: 0.8; stroke-linejoin: miter; stroke-linecap: square"/>
   </g>
   <g id="patch_19">
    <path d="M 796.19 404.12 
L 796.19 10.8 
" style="fill: none; stroke: #000000; stroke-width: 0.8; stroke-linejoin: miter; stroke-linecap: square"/>
   </g>
   <g id="patch_20">
    <path d="M 67.81 404.12 
L 796.19 404.12 
" style="fill: none; stroke: #000000; stroke-width: 0.8; stroke-linejoin: miter; stroke-linecap: square"/>
   </g>
   <g id="patch_21">
    <path d="M 67.81 10.8 
L 796.19 10.8 
" style="fill: none; stroke: #000000; stroke-width: 0.8; stroke-linejoin: miter; stroke-linecap: square"/>
   </g>
  </g>
 </g>
 <defs>
  <clipPath id="p90f0a6a88e">
   <rect x="67.81" y="10.8" width="728.38" height="393.32"/>
  </clipPath>
 </defs>
</svg>
