<?xml version="1.0" encoding="utf-8" standalone="no"?>
<!DOCTYPE svg PUBLIC "-//W3C//DTD SVG 1.1//EN"
  "http://www.w3.org/Graphics/SVG/1.1/DTD/svg11.dtd">
<svg xmlns:xlink="http://www.w3.org/1999/xlink" width="1296pt" height="576pt" viewBox="0 0 1296 576" xmlns="http://www.w3.org/2000/svg" version="1.1">
 <metadata>
  <rdf:RDF xmlns:dc="http://purl.org/dc/elements/1.1/" xmlns:cc="http://creativecommons.org/ns#" xmlns:rdf="http://www.w3.org/1999/02/22-rdf-syntax-ns#">
   <cc:Work>
    <dc:type rdf:resource="http://purl.org/dc/dcmitype/StillImage"/>
    <dc:date>2023-04-15T21:23:06.215503</dc:date>
    <dc:format>image/svg+xml</dc:format>
    <dc:creator>
     <cc:Agent>
      <dc:title>Matplotlib v3.6.2, https://matplotlib.org/</dc:title>
     </cc:Agent>
    </dc:creator>
   </cc:Work>
  </rdf:RDF>
 </metadata>
 <defs>
  <style type="text/css">*{stroke-linejoin: round; stroke-linecap: butt}</style>
 </defs>
 <g id="figure_1">
  <g id="patch_1">
   <path d="M 0 576 
L 1296 576 
L 1296 0 
L 0 0 
z
" style="fill: #ffffff"/>
  </g>
  <g id="axes_1">
   <g id="patch_2">
    <path d="M 95.46 494.58 
L 1201.42 494.58 
L 1201.42 10.8 
L 95.46 10.8 
z
" style="fill: #ffffff"/>
   </g>
   <g id="patch_3">
    <path d="M 145.730909 494.58 
L 186.768386 494.58 
L 186.768386 472.179526 
L 145.730909 472.179526 
z
" clip-path="url(#p70bff48c0e)" style="fill: #2c3c4b"/>
   </g>
   <g id="patch_4">
    <path d="M 248.324601 494.58 
L 289.362078 494.58 
L 289.362078 90.040156 
L 248.324601 90.040156 
z
" clip-path="url(#p70bff48c0e)" style="fill: #2c3c4b"/>
   </g>
   <g id="patch_5">
    <path d="M 350.918293 494.58 
L 391.95577 494.58 
L 391.95577 410.94787 
L 350.918293 410.94787 
z
" clip-path="url(#p70bff48c0e)" style="fill: #2c3c4b"/>
   </g>
   <g id="patch_6">
    <path d="M 453.511985 494.58 
L 494.549462 494.58 
L 494.549462 225.826496 
L 453.511985 225.826496 
z
" clip-path="url(#p70bff48c0e)" style="fill: #2c3c4b"/>
   </g>
   <g id="patch_7">
    <path d="M 556.105677 494.58 
L 597.143154 494.58 
L 597.143154 104.320901 
L 556.105677 104.320901 
z
" clip-path="url(#p70bff48c0e)" style="fill: #2c3c4b"/>
   </g>
   <g id="patch_8">
    <path d="M 658.699369 494.58 
L 699.736846 494.58 
L 699.736846 33.837143 
L 658.699369 33.837143 
z
" clip-path="url(#p70bff48c0e)" style="fill: #2c3c4b"/>
   </g>
   <g id="patch_9">
    <path d="M 761.293061 494.58 
L 802.330538 494.58 
L 802.330538 231.255244 
L 761.293061 231.255244 
z
" clip-path="url(#p70bff48c0e)" style="fill: #2c3c4b"/>
   </g>
   <g id="patch_10">
    <path d="M 863.886753 494.58 
L 904.92423 494.58 
L 904.92423 205.05985 
L 863.886753 205.05985 
z
" clip-path="url(#p70bff48c0e)" style="fill: #2c3c4b"/>
   </g>
   <g id="patch_11">
    <path d="M 966.480445 494.58 
L 1007.517922 494.58 
L 1007.517922 483.448798 
L 966.480445 483.448798 
z
" clip-path="url(#p70bff48c0e)" style="fill: #2c3c4b"/>
   </g>
   <g id="patch_12">
    <path d="M 1069.074137 494.58 
L 1110.111614 494.58 
L 1110.111614 243.341272 
L 1069.074137 243.341272 
z
" clip-path="url(#p70bff48c0e)" style="fill: #2c3c4b"/>
   </g>
   <g id="matplotlib.axis_1">
    <g id="xtick_1">
     <g id="line2d_1">
      <defs>
       <path id="m663f653083" d="M 0 0 
L 0 6 
" style="stroke: #000000; stroke-width: 1.5"/>
      </defs>
      <g>
       <use xlink:href="#m663f653083" x="186.768386" y="494.58" style="stroke: #000000; stroke-width: 1.5"/>
      </g>
     </g>
     <g id="text_1">
      <!-- 0.0 -->
      <g transform="translate(169.274948 520.796563) scale(0.22 -0.22)">
       <defs>
        <path id="DejaVuSans-30" d="M 2034 4250 
Q 1547 4250 1301 3770 
Q 1056 3291 1056 2328 
Q 1056 1369 1301 889 
Q 1547 409 2034 409 
Q 2525 409 2770 889 
Q 3016 1369 3016 2328 
Q 3016 3291 2770 3770 
Q 2525 4250 2034 4250 
z
M 2034 4750 
Q 2819 4750 3233 4129 
Q 3647 3509 3647 2328 
Q 3647 1150 3233 529 
Q 2819 -91 2034 -91 
Q 1250 -91 836 529 
Q 422 1150 422 2328 
Q 422 3509 836 4129 
Q 1250 4750 2034 4750 
z
" transform="scale(0.015625)"/>
        <path id="DejaVuSans-2e" d="M 684 794 
L 1344 794 
L 1344 0 
L 684 0 
L 684 794 
z
" transform="scale(0.015625)"/>
       </defs>
       <use xlink:href="#DejaVuSans-30"/>
       <use xlink:href="#DejaVuSans-2e" x="63.623047"/>
       <use xlink:href="#DejaVuSans-30" x="95.410156"/>
      </g>
     </g>
    </g>
    <g id="xtick_2">
     <g id="line2d_2">
      <g>
       <use xlink:href="#m663f653083" x="391.95577" y="494.58" style="stroke: #000000; stroke-width: 1.5"/>
      </g>
     </g>
     <g id="text_2">
      <!-- 0.2 -->
      <g transform="translate(374.462332 520.796563) scale(0.22 -0.22)">
       <defs>
        <path id="DejaVuSans-32" d="M 1228 531 
L 3431 531 
L 3431 0 
L 469 0 
L 469 531 
Q 828 903 1448 1529 
Q 2069 2156 2228 2338 
Q 2531 2678 2651 2914 
Q 2772 3150 2772 3378 
Q 2772 3750 2511 3984 
Q 2250 4219 1831 4219 
Q 1534 4219 1204 4116 
Q 875 4013 500 3803 
L 500 4441 
Q 881 4594 1212 4672 
Q 1544 4750 1819 4750 
Q 2544 4750 2975 4387 
Q 3406 4025 3406 3419 
Q 3406 3131 3298 2873 
Q 3191 2616 2906 2266 
Q 2828 2175 2409 1742 
Q 1991 1309 1228 531 
z
" transform="scale(0.015625)"/>
       </defs>
       <use xlink:href="#DejaVuSans-30"/>
       <use xlink:href="#DejaVuSans-2e" x="63.623047"/>
       <use xlink:href="#DejaVuSans-32" x="95.410156"/>
      </g>
     </g>
    </g>
    <g id="xtick_3">
     <g id="line2d_3">
      <g>
       <use xlink:href="#m663f653083" x="597.143154" y="494.58" style="stroke: #000000; stroke-width: 1.5"/>
      </g>
     </g>
     <g id="text_3">
      <!-- 0.4 -->
      <g transform="translate(579.649716 520.796563) scale(0.22 -0.22)">
       <defs>
        <path id="DejaVuSans-34" d="M 2419 4116 
L 825 1625 
L 2419 1625 
L 2419 4116 
z
M 2253 4666 
L 3047 4666 
L 3047 1625 
L 3713 1625 
L 3713 1100 
L 3047 1100 
L 3047 0 
L 2419 0 
L 2419 1100 
L 313 1100 
L 313 1709 
L 2253 4666 
z
" transform="scale(0.015625)"/>
       </defs>
       <use xlink:href="#DejaVuSans-30"/>
       <use xlink:href="#DejaVuSans-2e" x="63.623047"/>
       <use xlink:href="#DejaVuSans-34" x="95.410156"/>
      </g>
     </g>
    </g>
    <g id="xtick_4">
     <g id="line2d_4">
      <g>
       <use xlink:href="#m663f653083" x="802.330538" y="494.58" style="stroke: #000000; stroke-width: 1.5"/>
      </g>
     </g>
     <g id="text_4">
      <!-- 0.6 -->
      <g transform="translate(784.837101 520.796563) scale(0.22 -0.22)">
       <defs>
        <path id="DejaVuSans-36" d="M 2113 2584 
Q 1688 2584 1439 2293 
Q 1191 2003 1191 1497 
Q 1191 994 1439 701 
Q 1688 409 2113 409 
Q 2538 409 2786 701 
Q 3034 994 3034 1497 
Q 3034 2003 2786 2293 
Q 2538 2584 2113 2584 
z
M 3366 4563 
L 3366 3988 
Q 3128 4100 2886 4159 
Q 2644 4219 2406 4219 
Q 1781 4219 1451 3797 
Q 1122 3375 1075 2522 
Q 1259 2794 1537 2939 
Q 1816 3084 2150 3084 
Q 2853 3084 3261 2657 
Q 3669 2231 3669 1497 
Q 3669 778 3244 343 
Q 2819 -91 2113 -91 
Q 1303 -91 875 529 
Q 447 1150 447 2328 
Q 447 3434 972 4092 
Q 1497 4750 2381 4750 
Q 2619 4750 2861 4703 
Q 3103 4656 3366 4563 
z
" transform="scale(0.015625)"/>
       </defs>
       <use xlink:href="#DejaVuSans-30"/>
       <use xlink:href="#DejaVuSans-2e" x="63.623047"/>
       <use xlink:href="#DejaVuSans-36" x="95.410156"/>
      </g>
     </g>
    </g>
    <g id="xtick_5">
     <g id="line2d_5">
      <g>
       <use xlink:href="#m663f653083" x="1007.517922" y="494.58" style="stroke: #000000; stroke-width: 1.5"/>
      </g>
     </g>
     <g id="text_5">
      <!-- 0.8 -->
      <g transform="translate(990.024485 520.796563) scale(0.22 -0.22)">
       <defs>
        <path id="DejaVuSans-38" d="M 2034 2216 
Q 1584 2216 1326 1975 
Q 1069 1734 1069 1313 
Q 1069 891 1326 650 
Q 1584 409 2034 409 
Q 2484 409 2743 651 
Q 3003 894 3003 1313 
Q 3003 1734 2745 1975 
Q 2488 2216 2034 2216 
z
M 1403 2484 
Q 997 2584 770 2862 
Q 544 3141 544 3541 
Q 544 4100 942 4425 
Q 1341 4750 2034 4750 
Q 2731 4750 3128 4425 
Q 3525 4100 3525 3541 
Q 3525 3141 3298 2862 
Q 3072 2584 2669 2484 
Q 3125 2378 3379 2068 
Q 3634 1759 3634 1313 
Q 3634 634 3220 271 
Q 2806 -91 2034 -91 
Q 1263 -91 848 271 
Q 434 634 434 1313 
Q 434 1759 690 2068 
Q 947 2378 1403 2484 
z
M 1172 3481 
Q 1172 3119 1398 2916 
Q 1625 2713 2034 2713 
Q 2441 2713 2670 2916 
Q 2900 3119 2900 3481 
Q 2900 3844 2670 4047 
Q 2441 4250 2034 4250 
Q 1625 4250 1398 4047 
Q 1172 3844 1172 3481 
z
" transform="scale(0.015625)"/>
       </defs>
       <use xlink:href="#DejaVuSans-30"/>
       <use xlink:href="#DejaVuSans-2e" x="63.623047"/>
       <use xlink:href="#DejaVuSans-38" x="95.410156"/>
      </g>
     </g>
    </g>
    <g id="text_6">
     <!-- xLabel -->
     <g transform="translate(599.092344 558.167187) scale(0.3 -0.3)">
      <defs>
       <path id="DejaVuSans-78" d="M 3513 3500 
L 2247 1797 
L 3578 0 
L 2900 0 
L 1881 1375 
L 863 0 
L 184 0 
L 1544 1831 
L 300 3500 
L 978 3500 
L 1906 2253 
L 2834 3500 
L 3513 3500 
z
" transform="scale(0.015625)"/>
       <path id="DejaVuSans-4c" d="M 628 4666 
L 1259 4666 
L 1259 531 
L 3531 531 
L 3531 0 
L 628 0 
L 628 4666 
z
" transform="scale(0.015625)"/>
       <path id="DejaVuSans-61" d="M 2194 1759 
Q 1497 1759 1228 1600 
Q 959 1441 959 1056 
Q 959 750 1161 570 
Q 1363 391 1709 391 
Q 2188 391 2477 730 
Q 2766 1069 2766 1631 
L 2766 1759 
L 2194 1759 
z
M 3341 1997 
L 3341 0 
L 2766 0 
L 2766 531 
Q 2569 213 2275 61 
Q 1981 -91 1556 -91 
Q 1019 -91 701 211 
Q 384 513 384 1019 
Q 384 1609 779 1909 
Q 1175 2209 1959 2209 
L 2766 2209 
L 2766 2266 
Q 2766 2663 2505 2880 
Q 2244 3097 1772 3097 
Q 1472 3097 1187 3025 
Q 903 2953 641 2809 
L 641 3341 
Q 956 3463 1253 3523 
Q 1550 3584 1831 3584 
Q 2591 3584 2966 3190 
Q 3341 2797 3341 1997 
z
" transform="scale(0.015625)"/>
       <path id="DejaVuSans-62" d="M 3116 1747 
Q 3116 2381 2855 2742 
Q 2594 3103 2138 3103 
Q 1681 3103 1420 2742 
Q 1159 2381 1159 1747 
Q 1159 1113 1420 752 
Q 1681 391 2138 391 
Q 2594 391 2855 752 
Q 3116 1113 3116 1747 
z
M 1159 2969 
Q 1341 3281 1617 3432 
Q 1894 3584 2278 3584 
Q 2916 3584 3314 3078 
Q 3713 2572 3713 1747 
Q 3713 922 3314 415 
Q 2916 -91 2278 -91 
Q 1894 -91 1617 61 
Q 1341 213 1159 525 
L 1159 0 
L 581 0 
L 581 4863 
L 1159 4863 
L 1159 2969 
z
" transform="scale(0.015625)"/>
       <path id="DejaVuSans-65" d="M 3597 1894 
L 3597 1613 
L 953 1613 
Q 991 1019 1311 708 
Q 1631 397 2203 397 
Q 2534 397 2845 478 
Q 3156 559 3463 722 
L 3463 178 
Q 3153 47 2828 -22 
Q 2503 -91 2169 -91 
Q 1331 -91 842 396 
Q 353 884 353 1716 
Q 353 2575 817 3079 
Q 1281 3584 2069 3584 
Q 2775 3584 3186 3129 
Q 3597 2675 3597 1894 
z
M 3022 2063 
Q 3016 2534 2758 2815 
Q 2500 3097 2075 3097 
Q 1594 3097 1305 2825 
Q 1016 2553 972 2059 
L 3022 2063 
z
" transform="scale(0.015625)"/>
       <path id="DejaVuSans-6c" d="M 603 4863 
L 1178 4863 
L 1178 0 
L 603 0 
L 603 4863 
z
" transform="scale(0.015625)"/>
      </defs>
      <use xlink:href="#DejaVuSans-78"/>
      <use xlink:href="#DejaVuSans-4c" x="59.179688"/>
      <use xlink:href="#DejaVuSans-61" x="114.892578"/>
      <use xlink:href="#DejaVuSans-62" x="176.171875"/>
      <use xlink:href="#DejaVuSans-65" x="239.648438"/>
      <use xlink:href="#DejaVuSans-6c" x="301.171875"/>
     </g>
    </g>
   </g>
   <g id="matplotlib.axis_2">
    <g id="ytick_1">
     <g id="line2d_6">
      <defs>
       <path id="mf1631719a9" d="M 0 0 
L -6 0 
" style="stroke: #2c3c4b; stroke-width: 1.5"/>
      </defs>
      <g>
       <use xlink:href="#mf1631719a9" x="95.46" y="494.58" style="fill: #2c3c4b; stroke: #2c3c4b; stroke-width: 1.5"/>
      </g>
     </g>
     <g id="text_7">
      <!-- 0.0 -->
      <g style="fill: #2c3c4b" transform="translate(50.973125 502.938281) scale(0.22 -0.22)">
       <use xlink:href="#DejaVuSans-30"/>
       <use xlink:href="#DejaVuSans-2e" x="63.623047"/>
       <use xlink:href="#DejaVuSans-30" x="95.410156"/>
      </g>
     </g>
    </g>
    <g id="ytick_2">
     <g id="line2d_7">
      <g>
       <use xlink:href="#mf1631719a9" x="95.46" y="436.475187" style="fill: #2c3c4b; stroke: #2c3c4b; stroke-width: 1.5"/>
      </g>
     </g>
     <g id="text_8">
      <!-- 0.1 -->
      <g style="fill: #2c3c4b" transform="translate(50.973125 444.833468) scale(0.22 -0.22)">
       <defs>
        <path id="DejaVuSans-31" d="M 794 531 
L 1825 531 
L 1825 4091 
L 703 3866 
L 703 4441 
L 1819 4666 
L 2450 4666 
L 2450 531 
L 3481 531 
L 3481 0 
L 794 0 
L 794 531 
z
" transform="scale(0.015625)"/>
       </defs>
       <use xlink:href="#DejaVuSans-30"/>
       <use xlink:href="#DejaVuSans-2e" x="63.623047"/>
       <use xlink:href="#DejaVuSans-31" x="95.410156"/>
      </g>
     </g>
    </g>
    <g id="ytick_3">
     <g id="line2d_8">
      <g>
       <use xlink:href="#mf1631719a9" x="95.46" y="378.370373" style="fill: #2c3c4b; stroke: #2c3c4b; stroke-width: 1.5"/>
      </g>
     </g>
     <g id="text_9">
      <!-- 0.2 -->
      <g style="fill: #2c3c4b" transform="translate(50.973125 386.728654) scale(0.22 -0.22)">
       <use xlink:href="#DejaVuSans-30"/>
       <use xlink:href="#DejaVuSans-2e" x="63.623047"/>
       <use xlink:href="#DejaVuSans-32" x="95.410156"/>
      </g>
     </g>
    </g>
    <g id="ytick_4">
     <g id="line2d_9">
      <g>
       <use xlink:href="#mf1631719a9" x="95.46" y="320.26556" style="fill: #2c3c4b; stroke: #2c3c4b; stroke-width: 1.5"/>
      </g>
     </g>
     <g id="text_10">
      <!-- 0.3 -->
      <g style="fill: #2c3c4b" transform="translate(50.973125 328.623841) scale(0.22 -0.22)">
       <defs>
        <path id="DejaVuSans-33" d="M 2597 2516 
Q 3050 2419 3304 2112 
Q 3559 1806 3559 1356 
Q 3559 666 3084 287 
Q 2609 -91 1734 -91 
Q 1441 -91 1130 -33 
Q 819 25 488 141 
L 488 750 
Q 750 597 1062 519 
Q 1375 441 1716 441 
Q 2309 441 2620 675 
Q 2931 909 2931 1356 
Q 2931 1769 2642 2001 
Q 2353 2234 1838 2234 
L 1294 2234 
L 1294 2753 
L 1863 2753 
Q 2328 2753 2575 2939 
Q 2822 3125 2822 3475 
Q 2822 3834 2567 4026 
Q 2313 4219 1838 4219 
Q 1578 4219 1281 4162 
Q 984 4106 628 3988 
L 628 4550 
Q 988 4650 1302 4700 
Q 1616 4750 1894 4750 
Q 2613 4750 3031 4423 
Q 3450 4097 3450 3541 
Q 3450 3153 3228 2886 
Q 3006 2619 2597 2516 
z
" transform="scale(0.015625)"/>
       </defs>
       <use xlink:href="#DejaVuSans-30"/>
       <use xlink:href="#DejaVuSans-2e" x="63.623047"/>
       <use xlink:href="#DejaVuSans-33" x="95.410156"/>
      </g>
     </g>
    </g>
    <g id="ytick_5">
     <g id="line2d_10">
      <g>
       <use xlink:href="#mf1631719a9" x="95.46" y="262.160746" style="fill: #2c3c4b; stroke: #2c3c4b; stroke-width: 1.5"/>
      </g>
     </g>
     <g id="text_11">
      <!-- 0.4 -->
      <g style="fill: #2c3c4b" transform="translate(50.973125 270.519027) scale(0.22 -0.22)">
       <use xlink:href="#DejaVuSans-30"/>
       <use xlink:href="#DejaVuSans-2e" x="63.623047"/>
       <use xlink:href="#DejaVuSans-34" x="95.410156"/>
      </g>
     </g>
    </g>
    <g id="ytick_6">
     <g id="line2d_11">
      <g>
       <use xlink:href="#mf1631719a9" x="95.46" y="204.055933" style="fill: #2c3c4b; stroke: #2c3c4b; stroke-width: 1.5"/>
      </g>
     </g>
     <g id="text_12">
      <!-- 0.5 -->
      <g style="fill: #2c3c4b" transform="translate(50.973125 212.414214) scale(0.22 -0.22)">
       <defs>
        <path id="DejaVuSans-35" d="M 691 4666 
L 3169 4666 
L 3169 4134 
L 1269 4134 
L 1269 2991 
Q 1406 3038 1543 3061 
Q 1681 3084 1819 3084 
Q 2600 3084 3056 2656 
Q 3513 2228 3513 1497 
Q 3513 744 3044 326 
Q 2575 -91 1722 -91 
Q 1428 -91 1123 -41 
Q 819 9 494 109 
L 494 744 
Q 775 591 1075 516 
Q 1375 441 1709 441 
Q 2250 441 2565 725 
Q 2881 1009 2881 1497 
Q 2881 1984 2565 2268 
Q 2250 2553 1709 2553 
Q 1456 2553 1204 2497 
Q 953 2441 691 2322 
L 691 4666 
z
" transform="scale(0.015625)"/>
       </defs>
       <use xlink:href="#DejaVuSans-30"/>
       <use xlink:href="#DejaVuSans-2e" x="63.623047"/>
       <use xlink:href="#DejaVuSans-35" x="95.410156"/>
      </g>
     </g>
    </g>
    <g id="ytick_7">
     <g id="line2d_12">
      <g>
       <use xlink:href="#mf1631719a9" x="95.46" y="145.951119" style="fill: #2c3c4b; stroke: #2c3c4b; stroke-width: 1.5"/>
      </g>
     </g>
     <g id="text_13">
      <!-- 0.6 -->
      <g style="fill: #2c3c4b" transform="translate(50.973125 154.309401) scale(0.22 -0.22)">
       <use xlink:href="#DejaVuSans-30"/>
       <use xlink:href="#DejaVuSans-2e" x="63.623047"/>
       <use xlink:href="#DejaVuSans-36" x="95.410156"/>
      </g>
     </g>
    </g>
    <g id="ytick_8">
     <g id="line2d_13">
      <g>
       <use xlink:href="#mf1631719a9" x="95.46" y="87.846306" style="fill: #2c3c4b; stroke: #2c3c4b; stroke-width: 1.5"/>
      </g>
     </g>
     <g id="text_14">
      <!-- 0.7 -->
      <g style="fill: #2c3c4b" transform="translate(50.973125 96.204587) scale(0.22 -0.22)">
       <defs>
        <path id="DejaVuSans-37" d="M 525 4666 
L 3525 4666 
L 3525 4397 
L 1831 0 
L 1172 0 
L 2766 4134 
L 525 4134 
L 525 4666 
z
" transform="scale(0.015625)"/>
       </defs>
       <use xlink:href="#DejaVuSans-30"/>
       <use xlink:href="#DejaVuSans-2e" x="63.623047"/>
       <use xlink:href="#DejaVuSans-37" x="95.410156"/>
      </g>
     </g>
    </g>
    <g id="ytick_9">
     <g id="line2d_14">
      <g>
       <use xlink:href="#mf1631719a9" x="95.46" y="29.741492" style="fill: #2c3c4b; stroke: #2c3c4b; stroke-width: 1.5"/>
      </g>
     </g>
     <g id="text_15">
      <!-- 0.8 -->
      <g style="fill: #2c3c4b" transform="translate(50.973125 38.099774) scale(0.22 -0.22)">
       <use xlink:href="#DejaVuSans-30"/>
       <use xlink:href="#DejaVuSans-2e" x="63.623047"/>
       <use xlink:href="#DejaVuSans-38" x="95.410156"/>
      </g>
     </g>
    </g>
    <g id="text_16">
     <!-- yLabel 1 -->
     <g style="fill: #2c3c4b" transform="translate(34.734062 316.348594) rotate(-90) scale(0.3 -0.3)">
      <defs>
       <path id="DejaVuSans-79" d="M 2059 -325 
Q 1816 -950 1584 -1140 
Q 1353 -1331 966 -1331 
L 506 -1331 
L 506 -850 
L 844 -850 
Q 1081 -850 1212 -737 
Q 1344 -625 1503 -206 
L 1606 56 
L 191 3500 
L 800 3500 
L 1894 763 
L 2988 3500 
L 3597 3500 
L 2059 -325 
z
" transform="scale(0.015625)"/>
       <path id="DejaVuSans-20" transform="scale(0.015625)"/>
      </defs>
      <use xlink:href="#DejaVuSans-79"/>
      <use xlink:href="#DejaVuSans-4c" x="59.179688"/>
      <use xlink:href="#DejaVuSans-61" x="114.892578"/>
      <use xlink:href="#DejaVuSans-62" x="176.171875"/>
      <use xlink:href="#DejaVuSans-65" x="239.648438"/>
      <use xlink:href="#DejaVuSans-6c" x="301.171875"/>
      <use xlink:href="#DejaVuSans-20" x="328.955078"/>
      <use xlink:href="#DejaVuSans-31" x="360.742188"/>
     </g>
    </g>
   </g>
   <g id="patch_13">
    <path d="M 95.46 494.58 
L 95.46 10.8 
" style="fill: none; stroke: #000000; stroke-width: 0.8; stroke-linejoin: miter; stroke-linecap: square"/>
   </g>
   <g id="patch_14">
    <path d="M 1201.42 494.58 
L 1201.42 10.8 
" style="fill: none; stroke: #000000; stroke-width: 0.8; stroke-linejoin: miter; stroke-linecap: square"/>
   </g>
   <g id="patch_15">
    <path d="M 95.46 494.58 
L 1201.42 494.58 
" style="fill: none; stroke: #000000; stroke-width: 0.8; stroke-linejoin: miter; stroke-linecap: square"/>
   </g>
   <g id="patch_16">
    <path d="M 95.46 10.8 
L 1201.42 10.8 
" style="fill: none; stroke: #000000; stroke-width: 0.8; stroke-linejoin: miter; stroke-linecap: square"/>
   </g>
   <g id="text_17">
    <!-- 0.04 -->
    <g style="fill: #2c3c4b" transform="translate(135.47154 468.112189) scale(0.22 -0.22)">
     <use xlink:href="#DejaVuSans-30"/>
     <use xlink:href="#DejaVuSans-2e" x="63.623047"/>
     <use xlink:href="#DejaVuSans-30" x="95.410156"/>
     <use xlink:href="#DejaVuSans-34" x="159.033203"/>
    </g>
   </g>
   <g id="text_18">
    <!-- 0.70 -->
    <g style="fill: #2c3c4b" transform="translate(238.065232 85.972819) scale(0.22 -0.22)">
     <use xlink:href="#DejaVuSans-30"/>
     <use xlink:href="#DejaVuSans-2e" x="63.623047"/>
     <use xlink:href="#DejaVuSans-37" x="95.410156"/>
     <use xlink:href="#DejaVuSans-30" x="159.033203"/>
    </g>
   </g>
   <g id="text_19">
    <!-- 0.15 -->
    <g style="fill: #2c3c4b" transform="translate(340.658924 406.880533) scale(0.22 -0.22)">
     <use xlink:href="#DejaVuSans-30"/>
     <use xlink:href="#DejaVuSans-2e" x="63.623047"/>
     <use xlink:href="#DejaVuSans-31" x="95.410156"/>
     <use xlink:href="#DejaVuSans-35" x="159.033203"/>
    </g>
   </g>
   <g id="text_20">
    <!-- 0.46 -->
    <g style="fill: #2c3c4b" transform="translate(443.252616 221.759159) scale(0.22 -0.22)">
     <use xlink:href="#DejaVuSans-30"/>
     <use xlink:href="#DejaVuSans-2e" x="63.623047"/>
     <use xlink:href="#DejaVuSans-34" x="95.410156"/>
     <use xlink:href="#DejaVuSans-36" x="159.033203"/>
    </g>
   </g>
   <g id="text_21">
    <!-- 0.67 -->
    <g style="fill: #2c3c4b" transform="translate(545.846308 100.253564) scale(0.22 -0.22)">
     <use xlink:href="#DejaVuSans-30"/>
     <use xlink:href="#DejaVuSans-2e" x="63.623047"/>
     <use xlink:href="#DejaVuSans-36" x="95.410156"/>
     <use xlink:href="#DejaVuSans-37" x="159.033203"/>
    </g>
   </g>
   <g id="text_22">
    <!-- 0.79 -->
    <g style="fill: #2c3c4b" transform="translate(648.44 29.769806) scale(0.22 -0.22)">
     <defs>
      <path id="DejaVuSans-39" d="M 703 97 
L 703 672 
Q 941 559 1184 500 
Q 1428 441 1663 441 
Q 2288 441 2617 861 
Q 2947 1281 2994 2138 
Q 2813 1869 2534 1725 
Q 2256 1581 1919 1581 
Q 1219 1581 811 2004 
Q 403 2428 403 3163 
Q 403 3881 828 4315 
Q 1253 4750 1959 4750 
Q 2769 4750 3195 4129 
Q 3622 3509 3622 2328 
Q 3622 1225 3098 567 
Q 2575 -91 1691 -91 
Q 1453 -91 1209 -44 
Q 966 3 703 97 
z
M 1959 2075 
Q 2384 2075 2632 2365 
Q 2881 2656 2881 3163 
Q 2881 3666 2632 3958 
Q 2384 4250 1959 4250 
Q 1534 4250 1286 3958 
Q 1038 3666 1038 3163 
Q 1038 2656 1286 2365 
Q 1534 2075 1959 2075 
z
" transform="scale(0.015625)"/>
     </defs>
     <use xlink:href="#DejaVuSans-30"/>
     <use xlink:href="#DejaVuSans-2e" x="63.623047"/>
     <use xlink:href="#DejaVuSans-37" x="95.410156"/>
     <use xlink:href="#DejaVuSans-39" x="159.033203"/>
    </g>
   </g>
   <g id="text_23">
    <!-- 0.46 -->
    <g style="fill: #2c3c4b" transform="translate(751.033692 227.187907) scale(0.22 -0.22)">
     <use xlink:href="#DejaVuSans-30"/>
     <use xlink:href="#DejaVuSans-2e" x="63.623047"/>
     <use xlink:href="#DejaVuSans-34" x="95.410156"/>
     <use xlink:href="#DejaVuSans-36" x="159.033203"/>
    </g>
   </g>
   <g id="text_24">
    <!-- 0.50 -->
    <g style="fill: #2c3c4b" transform="translate(853.627384 200.992513) scale(0.22 -0.22)">
     <use xlink:href="#DejaVuSans-30"/>
     <use xlink:href="#DejaVuSans-2e" x="63.623047"/>
     <use xlink:href="#DejaVuSans-35" x="95.410156"/>
     <use xlink:href="#DejaVuSans-30" x="159.033203"/>
    </g>
   </g>
   <g id="text_25">
    <!-- 0.02 -->
    <g style="fill: #2c3c4b" transform="translate(956.221076 479.381461) scale(0.22 -0.22)">
     <use xlink:href="#DejaVuSans-30"/>
     <use xlink:href="#DejaVuSans-2e" x="63.623047"/>
     <use xlink:href="#DejaVuSans-30" x="95.410156"/>
     <use xlink:href="#DejaVuSans-32" x="159.033203"/>
    </g>
   </g>
   <g id="text_26">
    <!-- 0.43 -->
    <g style="fill: #2c3c4b" transform="translate(1058.814768 239.273935) scale(0.22 -0.22)">
     <use xlink:href="#DejaVuSans-30"/>
     <use xlink:href="#DejaVuSans-2e" x="63.623047"/>
     <use xlink:href="#DejaVuSans-34" x="95.410156"/>
     <use xlink:href="#DejaVuSans-33" x="159.033203"/>
    </g>
   </g>
  </g>
  <g id="axes_2">
   <g id="patch_17">
    <path d="M 186.768386 494.58 
L 227.805863 494.58 
L 227.805863 293.27616 
L 186.768386 293.27616 
z
" clip-path="url(#p70bff48c0e)" style="fill: #ae3b2f"/>
   </g>
   <g id="patch_18">
    <path d="M 289.362078 494.58 
L 330.399555 494.58 
L 330.399555 33.837143 
L 289.362078 33.837143 
z
" clip-path="url(#p70bff48c0e)" style="fill: #ae3b2f"/>
   </g>
   <g id="patch_19">
    <path d="M 391.95577 494.58 
L 432.993247 494.58 
L 432.993247 198.883311 
L 391.95577 198.883311 
z
" clip-path="url(#p70bff48c0e)" style="fill: #ae3b2f"/>
   </g>
   <g id="patch_20">
    <path d="M 494.549462 494.58 
L 535.586939 494.58 
L 535.586939 86.259597 
L 494.549462 86.259597 
z
" clip-path="url(#p70bff48c0e)" style="fill: #ae3b2f"/>
   </g>
   <g id="patch_21">
    <path d="M 597.143154 494.58 
L 638.180631 494.58 
L 638.180631 259.924994 
L 597.143154 259.924994 
z
" clip-path="url(#p70bff48c0e)" style="fill: #ae3b2f"/>
   </g>
   <g id="patch_22">
    <path d="M 699.736846 494.58 
L 740.774323 494.58 
L 740.774323 399.333616 
L 699.736846 399.333616 
z
" clip-path="url(#p70bff48c0e)" style="fill: #ae3b2f"/>
   </g>
   <g id="patch_23">
    <path d="M 802.330538 494.58 
L 843.368015 494.58 
L 843.368015 34.60121 
L 802.330538 34.60121 
z
" clip-path="url(#p70bff48c0e)" style="fill: #ae3b2f"/>
   </g>
   <g id="patch_24">
    <path d="M 904.92423 494.58 
L 945.961707 494.58 
L 945.961707 51.173288 
L 904.92423 51.173288 
z
" clip-path="url(#p70bff48c0e)" style="fill: #ae3b2f"/>
   </g>
   <g id="patch_25">
    <path d="M 1007.517922 494.58 
L 1048.555399 494.58 
L 1048.555399 291.392941 
L 1007.517922 291.392941 
z
" clip-path="url(#p70bff48c0e)" style="fill: #ae3b2f"/>
   </g>
   <g id="patch_26">
    <path d="M 1110.111614 494.58 
L 1151.149091 494.58 
L 1151.149091 442.821765 
L 1110.111614 442.821765 
z
" clip-path="url(#p70bff48c0e)" style="fill: #ae3b2f"/>
   </g>
   <g id="matplotlib.axis_3">
    <g id="ytick_10">
     <g id="line2d_15">
      <defs>
       <path id="m5d5b961f98" d="M 0 0 
L 6 0 
" style="stroke: #ae3b2f; stroke-width: 1.5"/>
      </defs>
      <g>
       <use xlink:href="#m5d5b961f98" x="1201.42" y="494.58" style="fill: #ae3b2f; stroke: #ae3b2f; stroke-width: 1.5"/>
      </g>
     </g>
     <g id="text_27">
      <!-- 0 -->
      <g style="fill: #ae3b2f" transform="translate(1210.92 502.938281) scale(0.22 -0.22)">
       <use xlink:href="#DejaVuSans-30"/>
      </g>
     </g>
    </g>
    <g id="ytick_11">
     <g id="line2d_16">
      <g>
       <use xlink:href="#m5d5b961f98" x="1201.42" y="440.520514" style="fill: #ae3b2f; stroke: #ae3b2f; stroke-width: 1.5"/>
      </g>
     </g>
     <g id="text_28">
      <!-- 1 -->
      <g style="fill: #ae3b2f" transform="translate(1210.92 448.878795) scale(0.22 -0.22)">
       <use xlink:href="#DejaVuSans-31"/>
      </g>
     </g>
    </g>
    <g id="ytick_12">
     <g id="line2d_17">
      <g>
       <use xlink:href="#m5d5b961f98" x="1201.42" y="386.461027" style="fill: #ae3b2f; stroke: #ae3b2f; stroke-width: 1.5"/>
      </g>
     </g>
     <g id="text_29">
      <!-- 2 -->
      <g style="fill: #ae3b2f" transform="translate(1210.92 394.819309) scale(0.22 -0.22)">
       <use xlink:href="#DejaVuSans-32"/>
      </g>
     </g>
    </g>
    <g id="ytick_13">
     <g id="line2d_18">
      <g>
       <use xlink:href="#m5d5b961f98" x="1201.42" y="332.401541" style="fill: #ae3b2f; stroke: #ae3b2f; stroke-width: 1.5"/>
      </g>
     </g>
     <g id="text_30">
      <!-- 3 -->
      <g style="fill: #ae3b2f" transform="translate(1210.92 340.759822) scale(0.22 -0.22)">
       <use xlink:href="#DejaVuSans-33"/>
      </g>
     </g>
    </g>
    <g id="ytick_14">
     <g id="line2d_19">
      <g>
       <use xlink:href="#m5d5b961f98" x="1201.42" y="278.342055" style="fill: #ae3b2f; stroke: #ae3b2f; stroke-width: 1.5"/>
      </g>
     </g>
     <g id="text_31">
      <!-- 4 -->
      <g style="fill: #ae3b2f" transform="translate(1210.92 286.700336) scale(0.22 -0.22)">
       <use xlink:href="#DejaVuSans-34"/>
      </g>
     </g>
    </g>
    <g id="ytick_15">
     <g id="line2d_20">
      <g>
       <use xlink:href="#m5d5b961f98" x="1201.42" y="224.282568" style="fill: #ae3b2f; stroke: #ae3b2f; stroke-width: 1.5"/>
      </g>
     </g>
     <g id="text_32">
      <!-- 5 -->
      <g style="fill: #ae3b2f" transform="translate(1210.92 232.64085) scale(0.22 -0.22)">
       <use xlink:href="#DejaVuSans-35"/>
      </g>
     </g>
    </g>
    <g id="ytick_16">
     <g id="line2d_21">
      <g>
       <use xlink:href="#m5d5b961f98" x="1201.42" y="170.223082" style="fill: #ae3b2f; stroke: #ae3b2f; stroke-width: 1.5"/>
      </g>
     </g>
     <g id="text_33">
      <!-- 6 -->
      <g style="fill: #ae3b2f" transform="translate(1210.92 178.581363) scale(0.22 -0.22)">
       <use xlink:href="#DejaVuSans-36"/>
      </g>
     </g>
    </g>
    <g id="ytick_17">
     <g id="line2d_22">
      <g>
       <use xlink:href="#m5d5b961f98" x="1201.42" y="116.163596" style="fill: #ae3b2f; stroke: #ae3b2f; stroke-width: 1.5"/>
      </g>
     </g>
     <g id="text_34">
      <!-- 7 -->
      <g style="fill: #ae3b2f" transform="translate(1210.92 124.521877) scale(0.22 -0.22)">
       <use xlink:href="#DejaVuSans-37"/>
      </g>
     </g>
    </g>
    <g id="ytick_18">
     <g id="line2d_23">
      <g>
       <use xlink:href="#m5d5b961f98" x="1201.42" y="62.104109" style="fill: #ae3b2f; stroke: #ae3b2f; stroke-width: 1.5"/>
      </g>
     </g>
     <g id="text_35">
      <!-- 8 -->
      <g style="fill: #ae3b2f" transform="translate(1210.92 70.462391) scale(0.22 -0.22)">
       <use xlink:href="#DejaVuSans-38"/>
      </g>
     </g>
    </g>
    <g id="text_36">
     <!-- yLabel 2 -->
     <g style="fill: #ae3b2f" transform="translate(1277.712812 316.348594) rotate(-90) scale(0.3 -0.3)">
      <use xlink:href="#DejaVuSans-79"/>
      <use xlink:href="#DejaVuSans-4c" x="59.179688"/>
      <use xlink:href="#DejaVuSans-61" x="114.892578"/>
      <use xlink:href="#DejaVuSans-62" x="176.171875"/>
      <use xlink:href="#DejaVuSans-65" x="239.648438"/>
      <use xlink:href="#DejaVuSans-6c" x="301.171875"/>
      <use xlink:href="#DejaVuSans-20" x="328.955078"/>
      <use xlink:href="#DejaVuSans-32" x="360.742188"/>
     </g>
    </g>
   </g>
   <g id="patch_27">
    <path d="M 95.46 494.58 
L 95.46 10.8 
" style="fill: none; stroke: #000000; stroke-width: 0.8; stroke-linejoin: miter; stroke-linecap: square"/>
   </g>
   <g id="patch_28">
    <path d="M 1201.42 494.58 
L 1201.42 10.8 
" style="fill: none; stroke: #000000; stroke-width: 0.8; stroke-linejoin: miter; stroke-linecap: square"/>
   </g>
   <g id="patch_29">
    <path d="M 95.46 494.58 
L 1201.42 494.58 
" style="fill: none; stroke: #000000; stroke-width: 0.8; stroke-linejoin: miter; stroke-linecap: square"/>
   </g>
   <g id="patch_30">
    <path d="M 95.46 10.8 
L 1201.42 10.8 
" style="fill: none; stroke: #000000; stroke-width: 0.8; stroke-linejoin: miter; stroke-linecap: square"/>
   </g>
   <g id="text_37">
    <!-- 3.73 -->
    <g style="fill: #ae3b2f" transform="translate(186.768386 292.897744) scale(0.22 -0.22)">
     <use xlink:href="#DejaVuSans-33"/>
     <use xlink:href="#DejaVuSans-2e" x="63.623047"/>
     <use xlink:href="#DejaVuSans-37" x="95.410156"/>
     <use xlink:href="#DejaVuSans-33" x="159.033203"/>
    </g>
   </g>
   <g id="text_38">
    <!-- 8.52 -->
    <g style="fill: #ae3b2f" transform="translate(289.362078 33.458726) scale(0.22 -0.22)">
     <use xlink:href="#DejaVuSans-38"/>
     <use xlink:href="#DejaVuSans-2e" x="63.623047"/>
     <use xlink:href="#DejaVuSans-35" x="95.410156"/>
     <use xlink:href="#DejaVuSans-32" x="159.033203"/>
    </g>
   </g>
   <g id="text_39">
    <!-- 5.47 -->
    <g style="fill: #ae3b2f" transform="translate(391.95577 198.504895) scale(0.22 -0.22)">
     <use xlink:href="#DejaVuSans-35"/>
     <use xlink:href="#DejaVuSans-2e" x="63.623047"/>
     <use xlink:href="#DejaVuSans-34" x="95.410156"/>
     <use xlink:href="#DejaVuSans-37" x="159.033203"/>
    </g>
   </g>
   <g id="text_40">
    <!-- 7.56 -->
    <g style="fill: #ae3b2f" transform="translate(494.549462 85.881181) scale(0.22 -0.22)">
     <use xlink:href="#DejaVuSans-37"/>
     <use xlink:href="#DejaVuSans-2e" x="63.623047"/>
     <use xlink:href="#DejaVuSans-35" x="95.410156"/>
     <use xlink:href="#DejaVuSans-36" x="159.033203"/>
    </g>
   </g>
   <g id="text_41">
    <!-- 4.34 -->
    <g style="fill: #ae3b2f" transform="translate(597.143154 259.546577) scale(0.22 -0.22)">
     <use xlink:href="#DejaVuSans-34"/>
     <use xlink:href="#DejaVuSans-2e" x="63.623047"/>
     <use xlink:href="#DejaVuSans-33" x="95.410156"/>
     <use xlink:href="#DejaVuSans-34" x="159.033203"/>
    </g>
   </g>
   <g id="text_42">
    <!-- 1.76 -->
    <g style="fill: #ae3b2f" transform="translate(699.736846 398.955199) scale(0.22 -0.22)">
     <use xlink:href="#DejaVuSans-31"/>
     <use xlink:href="#DejaVuSans-2e" x="63.623047"/>
     <use xlink:href="#DejaVuSans-37" x="95.410156"/>
     <use xlink:href="#DejaVuSans-36" x="159.033203"/>
    </g>
   </g>
   <g id="text_43">
    <!-- 8.51 -->
    <g style="fill: #ae3b2f" transform="translate(802.330538 34.222793) scale(0.22 -0.22)">
     <use xlink:href="#DejaVuSans-38"/>
     <use xlink:href="#DejaVuSans-2e" x="63.623047"/>
     <use xlink:href="#DejaVuSans-35" x="95.410156"/>
     <use xlink:href="#DejaVuSans-31" x="159.033203"/>
    </g>
   </g>
   <g id="text_44">
    <!-- 8.20 -->
    <g style="fill: #ae3b2f" transform="translate(904.92423 50.794872) scale(0.22 -0.22)">
     <use xlink:href="#DejaVuSans-38"/>
     <use xlink:href="#DejaVuSans-2e" x="63.623047"/>
     <use xlink:href="#DejaVuSans-32" x="95.410156"/>
     <use xlink:href="#DejaVuSans-30" x="159.033203"/>
    </g>
   </g>
   <g id="text_45">
    <!-- 3.76 -->
    <g style="fill: #ae3b2f" transform="translate(1007.517922 291.014525) scale(0.22 -0.22)">
     <use xlink:href="#DejaVuSans-33"/>
     <use xlink:href="#DejaVuSans-2e" x="63.623047"/>
     <use xlink:href="#DejaVuSans-37" x="95.410156"/>
     <use xlink:href="#DejaVuSans-36" x="159.033203"/>
    </g>
   </g>
   <g id="text_46">
    <!-- 0.96 -->
    <g style="fill: #ae3b2f" transform="translate(1110.111614 442.443348) scale(0.22 -0.22)">
     <use xlink:href="#DejaVuSans-30"/>
     <use xlink:href="#DejaVuSans-2e" x="63.623047"/>
     <use xlink:href="#DejaVuSans-39" x="95.410156"/>
     <use xlink:href="#DejaVuSans-36" x="159.033203"/>
    </g>
   </g>
  </g>
 </g>
 <defs>
  <clipPath id="p70bff48c0e">
   <rect x="95.46" y="10.8" width="1105.96" height="483.78"/>
  </clipPath>
 </defs>
</svg>
