<?xml version="1.0" encoding="utf-8" standalone="no"?>
<!DOCTYPE svg PUBLIC "-//W3C//DTD SVG 1.1//EN"
  "http://www.w3.org/Graphics/SVG/1.1/DTD/svg11.dtd">
<svg xmlns:xlink="http://www.w3.org/1999/xlink" width="1152pt" height="360pt" viewBox="0 0 1152 360" xmlns="http://www.w3.org/2000/svg" version="1.1">
 <metadata>
  <rdf:RDF xmlns:dc="http://purl.org/dc/elements/1.1/" xmlns:cc="http://creativecommons.org/ns#" xmlns:rdf="http://www.w3.org/1999/02/22-rdf-syntax-ns#">
   <cc:Work>
    <dc:type rdf:resource="http://purl.org/dc/dcmitype/StillImage"/>
    <dc:date>2023-04-15T20:38:15.973320</dc:date>
    <dc:format>image/svg+xml</dc:format>
    <dc:creator>
     <cc:Agent>
      <dc:title>Matplotlib v3.6.2, https://matplotlib.org/</dc:title>
     </cc:Agent>
    </dc:creator>
   </cc:Work>
  </rdf:RDF>
 </metadata>
 <defs>
  <style type="text/css">*{stroke-linejoin: round; stroke-linecap: butt}</style>
 </defs>
 <g id="figure_1">
  <g id="patch_1">
   <path d="M 0 360 
L 1152 360 
L 1152 0 
L 0 0 
z
" style="fill: #ffffff"/>
  </g>
  <g id="axes_1">
   <g id="patch_2">
    <path d="M 42.624 270 
L 278.347962 270 
L 278.347962 -12.6 
L 42.624 -12.6 
z
" style="fill: #ffffff"/>
   </g>
   <g id="matplotlib.axis_1">
    <g id="xtick_1">
     <g id="text_1">
      <!-- CLS 1 -->
      <g transform="translate(40.969592 315.228513) rotate(-45) scale(0.15 -0.15)">
       <defs>
        <path id="DejaVuSans-43" d="M 4122 4306 
L 4122 3641 
Q 3803 3938 3442 4084 
Q 3081 4231 2675 4231 
Q 1875 4231 1450 3742 
Q 1025 3253 1025 2328 
Q 1025 1406 1450 917 
Q 1875 428 2675 428 
Q 3081 428 3442 575 
Q 3803 722 4122 1019 
L 4122 359 
Q 3791 134 3420 21 
Q 3050 -91 2638 -91 
Q 1578 -91 968 557 
Q 359 1206 359 2328 
Q 359 3453 968 4101 
Q 1578 4750 2638 4750 
Q 3056 4750 3426 4639 
Q 3797 4528 4122 4306 
z
" transform="scale(0.015625)"/>
        <path id="DejaVuSans-4c" d="M 628 4666 
L 1259 4666 
L 1259 531 
L 3531 531 
L 3531 0 
L 628 0 
L 628 4666 
z
" transform="scale(0.015625)"/>
        <path id="DejaVuSans-53" d="M 3425 4513 
L 3425 3897 
Q 3066 4069 2747 4153 
Q 2428 4238 2131 4238 
Q 1616 4238 1336 4038 
Q 1056 3838 1056 3469 
Q 1056 3159 1242 3001 
Q 1428 2844 1947 2747 
L 2328 2669 
Q 3034 2534 3370 2195 
Q 3706 1856 3706 1288 
Q 3706 609 3251 259 
Q 2797 -91 1919 -91 
Q 1588 -91 1214 -16 
Q 841 59 441 206 
L 441 856 
Q 825 641 1194 531 
Q 1563 422 1919 422 
Q 2459 422 2753 634 
Q 3047 847 3047 1241 
Q 3047 1584 2836 1778 
Q 2625 1972 2144 2069 
L 1759 2144 
Q 1053 2284 737 2584 
Q 422 2884 422 3419 
Q 422 4038 858 4394 
Q 1294 4750 2059 4750 
Q 2388 4750 2728 4690 
Q 3069 4631 3425 4513 
z
" transform="scale(0.015625)"/>
        <path id="DejaVuSans-20" transform="scale(0.015625)"/>
        <path id="DejaVuSans-31" d="M 794 531 
L 1825 531 
L 1825 4091 
L 703 3866 
L 703 4441 
L 1819 4666 
L 2450 4666 
L 2450 531 
L 3481 531 
L 3481 0 
L 794 0 
L 794 531 
z
" transform="scale(0.015625)"/>
       </defs>
       <use xlink:href="#DejaVuSans-43"/>
       <use xlink:href="#DejaVuSans-4c" x="69.824219"/>
       <use xlink:href="#DejaVuSans-53" x="125.537109"/>
       <use xlink:href="#DejaVuSans-20" x="189.013672"/>
       <use xlink:href="#DejaVuSans-31" x="220.800781"/>
      </g>
     </g>
    </g>
    <g id="xtick_2">
     <g id="text_2">
      <!-- CLS 2 -->
      <g transform="translate(68.800048 315.228513) rotate(-45) scale(0.15 -0.15)">
       <defs>
        <path id="DejaVuSans-32" d="M 1228 531 
L 3431 531 
L 3431 0 
L 469 0 
L 469 531 
Q 828 903 1448 1529 
Q 2069 2156 2228 2338 
Q 2531 2678 2651 2914 
Q 2772 3150 2772 3378 
Q 2772 3750 2511 3984 
Q 2250 4219 1831 4219 
Q 1534 4219 1204 4116 
Q 875 4013 500 3803 
L 500 4441 
Q 881 4594 1212 4672 
Q 1544 4750 1819 4750 
Q 2544 4750 2975 4387 
Q 3406 4025 3406 3419 
Q 3406 3131 3298 2873 
Q 3191 2616 2906 2266 
Q 2828 2175 2409 1742 
Q 1991 1309 1228 531 
z
" transform="scale(0.015625)"/>
       </defs>
       <use xlink:href="#DejaVuSans-43"/>
       <use xlink:href="#DejaVuSans-4c" x="69.824219"/>
       <use xlink:href="#DejaVuSans-53" x="125.537109"/>
       <use xlink:href="#DejaVuSans-20" x="189.013672"/>
       <use xlink:href="#DejaVuSans-32" x="220.800781"/>
      </g>
     </g>
    </g>
    <g id="xtick_3">
     <g id="text_3">
      <!-- CLS 3 -->
      <g transform="translate(96.630504 315.228513) rotate(-45) scale(0.15 -0.15)">
       <defs>
        <path id="DejaVuSans-33" d="M 2597 2516 
Q 3050 2419 3304 2112 
Q 3559 1806 3559 1356 
Q 3559 666 3084 287 
Q 2609 -91 1734 -91 
Q 1441 -91 1130 -33 
Q 819 25 488 141 
L 488 750 
Q 750 597 1062 519 
Q 1375 441 1716 441 
Q 2309 441 2620 675 
Q 2931 909 2931 1356 
Q 2931 1769 2642 2001 
Q 2353 2234 1838 2234 
L 1294 2234 
L 1294 2753 
L 1863 2753 
Q 2328 2753 2575 2939 
Q 2822 3125 2822 3475 
Q 2822 3834 2567 4026 
Q 2313 4219 1838 4219 
Q 1578 4219 1281 4162 
Q 984 4106 628 3988 
L 628 4550 
Q 988 4650 1302 4700 
Q 1616 4750 1894 4750 
Q 2613 4750 3031 4423 
Q 3450 4097 3450 3541 
Q 3450 3153 3228 2886 
Q 3006 2619 2597 2516 
z
" transform="scale(0.015625)"/>
       </defs>
       <use xlink:href="#DejaVuSans-43"/>
       <use xlink:href="#DejaVuSans-4c" x="69.824219"/>
       <use xlink:href="#DejaVuSans-53" x="125.537109"/>
       <use xlink:href="#DejaVuSans-20" x="189.013672"/>
       <use xlink:href="#DejaVuSans-33" x="220.800781"/>
      </g>
     </g>
    </g>
    <g id="xtick_4">
     <g id="text_4">
      <!-- CLS 4 -->
      <g transform="translate(124.46096 315.228513) rotate(-45) scale(0.15 -0.15)">
       <defs>
        <path id="DejaVuSans-34" d="M 2419 4116 
L 825 1625 
L 2419 1625 
L 2419 4116 
z
M 2253 4666 
L 3047 4666 
L 3047 1625 
L 3713 1625 
L 3713 1100 
L 3047 1100 
L 3047 0 
L 2419 0 
L 2419 1100 
L 313 1100 
L 313 1709 
L 2253 4666 
z
" transform="scale(0.015625)"/>
       </defs>
       <use xlink:href="#DejaVuSans-43"/>
       <use xlink:href="#DejaVuSans-4c" x="69.824219"/>
       <use xlink:href="#DejaVuSans-53" x="125.537109"/>
       <use xlink:href="#DejaVuSans-20" x="189.013672"/>
       <use xlink:href="#DejaVuSans-34" x="220.800781"/>
      </g>
     </g>
    </g>
    <g id="xtick_5">
     <g id="text_5">
      <!-- CLS 5 -->
      <g transform="translate(152.291416 315.228513) rotate(-45) scale(0.15 -0.15)">
       <defs>
        <path id="DejaVuSans-35" d="M 691 4666 
L 3169 4666 
L 3169 4134 
L 1269 4134 
L 1269 2991 
Q 1406 3038 1543 3061 
Q 1681 3084 1819 3084 
Q 2600 3084 3056 2656 
Q 3513 2228 3513 1497 
Q 3513 744 3044 326 
Q 2575 -91 1722 -91 
Q 1428 -91 1123 -41 
Q 819 9 494 109 
L 494 744 
Q 775 591 1075 516 
Q 1375 441 1709 441 
Q 2250 441 2565 725 
Q 2881 1009 2881 1497 
Q 2881 1984 2565 2268 
Q 2250 2553 1709 2553 
Q 1456 2553 1204 2497 
Q 953 2441 691 2322 
L 691 4666 
z
" transform="scale(0.015625)"/>
       </defs>
       <use xlink:href="#DejaVuSans-43"/>
       <use xlink:href="#DejaVuSans-4c" x="69.824219"/>
       <use xlink:href="#DejaVuSans-53" x="125.537109"/>
       <use xlink:href="#DejaVuSans-20" x="189.013672"/>
       <use xlink:href="#DejaVuSans-35" x="220.800781"/>
      </g>
     </g>
    </g>
    <g id="xtick_6">
     <g id="text_6">
      <!-- CLS 6 -->
      <g transform="translate(180.121872 315.228513) rotate(-45) scale(0.15 -0.15)">
       <defs>
        <path id="DejaVuSans-36" d="M 2113 2584 
Q 1688 2584 1439 2293 
Q 1191 2003 1191 1497 
Q 1191 994 1439 701 
Q 1688 409 2113 409 
Q 2538 409 2786 701 
Q 3034 994 3034 1497 
Q 3034 2003 2786 2293 
Q 2538 2584 2113 2584 
z
M 3366 4563 
L 3366 3988 
Q 3128 4100 2886 4159 
Q 2644 4219 2406 4219 
Q 1781 4219 1451 3797 
Q 1122 3375 1075 2522 
Q 1259 2794 1537 2939 
Q 1816 3084 2150 3084 
Q 2853 3084 3261 2657 
Q 3669 2231 3669 1497 
Q 3669 778 3244 343 
Q 2819 -91 2113 -91 
Q 1303 -91 875 529 
Q 447 1150 447 2328 
Q 447 3434 972 4092 
Q 1497 4750 2381 4750 
Q 2619 4750 2861 4703 
Q 3103 4656 3366 4563 
z
" transform="scale(0.015625)"/>
       </defs>
       <use xlink:href="#DejaVuSans-43"/>
       <use xlink:href="#DejaVuSans-4c" x="69.824219"/>
       <use xlink:href="#DejaVuSans-53" x="125.537109"/>
       <use xlink:href="#DejaVuSans-20" x="189.013672"/>
       <use xlink:href="#DejaVuSans-36" x="220.800781"/>
      </g>
     </g>
    </g>
    <g id="xtick_7">
     <g id="text_7">
      <!-- CLS 7 -->
      <g transform="translate(207.952329 315.228513) rotate(-45) scale(0.15 -0.15)">
       <defs>
        <path id="DejaVuSans-37" d="M 525 4666 
L 3525 4666 
L 3525 4397 
L 1831 0 
L 1172 0 
L 2766 4134 
L 525 4134 
L 525 4666 
z
" transform="scale(0.015625)"/>
       </defs>
       <use xlink:href="#DejaVuSans-43"/>
       <use xlink:href="#DejaVuSans-4c" x="69.824219"/>
       <use xlink:href="#DejaVuSans-53" x="125.537109"/>
       <use xlink:href="#DejaVuSans-20" x="189.013672"/>
       <use xlink:href="#DejaVuSans-37" x="220.800781"/>
      </g>
     </g>
    </g>
    <g id="xtick_8">
     <g id="text_8">
      <!-- CLS 8 -->
      <g transform="translate(235.782785 315.228513) rotate(-45) scale(0.15 -0.15)">
       <defs>
        <path id="DejaVuSans-38" d="M 2034 2216 
Q 1584 2216 1326 1975 
Q 1069 1734 1069 1313 
Q 1069 891 1326 650 
Q 1584 409 2034 409 
Q 2484 409 2743 651 
Q 3003 894 3003 1313 
Q 3003 1734 2745 1975 
Q 2488 2216 2034 2216 
z
M 1403 2484 
Q 997 2584 770 2862 
Q 544 3141 544 3541 
Q 544 4100 942 4425 
Q 1341 4750 2034 4750 
Q 2731 4750 3128 4425 
Q 3525 4100 3525 3541 
Q 3525 3141 3298 2862 
Q 3072 2584 2669 2484 
Q 3125 2378 3379 2068 
Q 3634 1759 3634 1313 
Q 3634 634 3220 271 
Q 2806 -91 2034 -91 
Q 1263 -91 848 271 
Q 434 634 434 1313 
Q 434 1759 690 2068 
Q 947 2378 1403 2484 
z
M 1172 3481 
Q 1172 3119 1398 2916 
Q 1625 2713 2034 2713 
Q 2441 2713 2670 2916 
Q 2900 3119 2900 3481 
Q 2900 3844 2670 4047 
Q 2441 4250 2034 4250 
Q 1625 4250 1398 4047 
Q 1172 3844 1172 3481 
z
" transform="scale(0.015625)"/>
       </defs>
       <use xlink:href="#DejaVuSans-43"/>
       <use xlink:href="#DejaVuSans-4c" x="69.824219"/>
       <use xlink:href="#DejaVuSans-53" x="125.537109"/>
       <use xlink:href="#DejaVuSans-20" x="189.013672"/>
       <use xlink:href="#DejaVuSans-38" x="220.800781"/>
      </g>
     </g>
    </g>
   </g>
   <g id="matplotlib.axis_2">
    <g id="ytick_1">
     <g id="line2d_1">
      <path d="M 42.624 213.48 
L 278.347962 213.48 
" clip-path="url(#p39649276ba)" style="fill: none; stroke: #808080; stroke-width: 0.3; stroke-linecap: square"/>
     </g>
     <g id="text_9">
      <!-- 0.75 -->
      <g transform="translate(2.225562 219.178828) scale(0.15 -0.15)">
       <defs>
        <path id="DejaVuSans-30" d="M 2034 4250 
Q 1547 4250 1301 3770 
Q 1056 3291 1056 2328 
Q 1056 1369 1301 889 
Q 1547 409 2034 409 
Q 2525 409 2770 889 
Q 3016 1369 3016 2328 
Q 3016 3291 2770 3770 
Q 2525 4250 2034 4250 
z
M 2034 4750 
Q 2819 4750 3233 4129 
Q 3647 3509 3647 2328 
Q 3647 1150 3233 529 
Q 2819 -91 2034 -91 
Q 1250 -91 836 529 
Q 422 1150 422 2328 
Q 422 3509 836 4129 
Q 1250 4750 2034 4750 
z
" transform="scale(0.015625)"/>
        <path id="DejaVuSans-2e" d="M 684 794 
L 1344 794 
L 1344 0 
L 684 0 
L 684 794 
z
" transform="scale(0.015625)"/>
       </defs>
       <use xlink:href="#DejaVuSans-30"/>
       <use xlink:href="#DejaVuSans-2e" x="63.623047"/>
       <use xlink:href="#DejaVuSans-37" x="95.410156"/>
       <use xlink:href="#DejaVuSans-35" x="159.033203"/>
      </g>
     </g>
    </g>
    <g id="ytick_2">
     <g id="line2d_2">
      <path d="M 42.624 156.96 
L 278.347962 156.96 
" clip-path="url(#p39649276ba)" style="fill: none; stroke: #808080; stroke-width: 0.3; stroke-linecap: square"/>
     </g>
     <g id="text_10">
      <!-- 0.80 -->
      <g transform="translate(2.225562 162.658828) scale(0.15 -0.15)">
       <use xlink:href="#DejaVuSans-30"/>
       <use xlink:href="#DejaVuSans-2e" x="63.623047"/>
       <use xlink:href="#DejaVuSans-38" x="95.410156"/>
       <use xlink:href="#DejaVuSans-30" x="159.033203"/>
      </g>
     </g>
    </g>
    <g id="ytick_3">
     <g id="line2d_3">
      <path d="M 42.624 100.44 
L 278.347962 100.44 
" clip-path="url(#p39649276ba)" style="fill: none; stroke: #808080; stroke-width: 0.3; stroke-linecap: square"/>
     </g>
     <g id="text_11">
      <!-- 0.85 -->
      <g transform="translate(2.225562 106.138828) scale(0.15 -0.15)">
       <use xlink:href="#DejaVuSans-30"/>
       <use xlink:href="#DejaVuSans-2e" x="63.623047"/>
       <use xlink:href="#DejaVuSans-38" x="95.410156"/>
       <use xlink:href="#DejaVuSans-35" x="159.033203"/>
      </g>
     </g>
    </g>
    <g id="ytick_4">
     <g id="line2d_4">
      <path d="M 42.624 43.92 
L 278.347962 43.92 
" clip-path="url(#p39649276ba)" style="fill: none; stroke: #808080; stroke-width: 0.3; stroke-linecap: square"/>
     </g>
     <g id="text_12">
      <!-- 0.90 -->
      <g transform="translate(2.225562 49.618828) scale(0.15 -0.15)">
       <defs>
        <path id="DejaVuSans-39" d="M 703 97 
L 703 672 
Q 941 559 1184 500 
Q 1428 441 1663 441 
Q 2288 441 2617 861 
Q 2947 1281 2994 2138 
Q 2813 1869 2534 1725 
Q 2256 1581 1919 1581 
Q 1219 1581 811 2004 
Q 403 2428 403 3163 
Q 403 3881 828 4315 
Q 1253 4750 1959 4750 
Q 2769 4750 3195 4129 
Q 3622 3509 3622 2328 
Q 3622 1225 3098 567 
Q 2575 -91 1691 -91 
Q 1453 -91 1209 -44 
Q 966 3 703 97 
z
M 1959 2075 
Q 2384 2075 2632 2365 
Q 2881 2656 2881 3163 
Q 2881 3666 2632 3958 
Q 2384 4250 1959 4250 
Q 1534 4250 1286 3958 
Q 1038 3666 1038 3163 
Q 1038 2656 1286 2365 
Q 1534 2075 1959 2075 
z
" transform="scale(0.015625)"/>
       </defs>
       <use xlink:href="#DejaVuSans-30"/>
       <use xlink:href="#DejaVuSans-2e" x="63.623047"/>
       <use xlink:href="#DejaVuSans-39" x="95.410156"/>
       <use xlink:href="#DejaVuSans-30" x="159.033203"/>
      </g>
     </g>
    </g>
   </g>
   <g id="patch_3">
    <path d="M 53.338726 1061.28 
L 72.820045 1061.28 
L 72.820045 43.92 
L 53.338726 43.92 
z
" clip-path="url(#p39649276ba)" style="fill: #9400d3"/>
   </g>
   <g id="patch_4">
    <path d="M 81.169182 1061.28 
L 100.650501 1061.28 
L 100.650501 32.616 
L 81.169182 32.616 
z
" clip-path="url(#p39649276ba)" style="fill: #9400d3"/>
   </g>
   <g id="patch_5">
    <path d="M 108.999638 1061.28 
L 128.480957 1061.28 
L 128.480957 89.136 
L 108.999638 89.136 
z
" clip-path="url(#p39649276ba)" style="fill: #9400d3"/>
   </g>
   <g id="patch_6">
    <path d="M 136.830094 1061.28 
L 156.311413 1061.28 
L 156.311413 156.96 
L 136.830094 156.96 
z
" clip-path="url(#p39649276ba)" style="fill: #9400d3"/>
   </g>
   <g id="patch_7">
    <path d="M 164.66055 1061.28 
L 184.141869 1061.28 
L 184.141869 123.048 
L 164.66055 123.048 
z
" clip-path="url(#p39649276ba)" style="fill: #9400d3"/>
   </g>
   <g id="patch_8">
    <path d="M 192.491006 1061.28 
L 211.972325 1061.28 
L 211.972325 21.312 
L 192.491006 21.312 
z
" clip-path="url(#p39649276ba)" style="fill: #9400d3"/>
   </g>
   <g id="patch_9">
    <path d="M 220.321462 1061.28 
L 239.802781 1061.28 
L 239.802781 21.312 
L 220.321462 21.312 
z
" clip-path="url(#p39649276ba)" style="fill: #9400d3"/>
   </g>
   <g id="patch_10">
    <path d="M 248.151918 1061.28 
L 267.633237 1061.28 
L 267.633237 100.44 
L 248.151918 100.44 
z
" clip-path="url(#p39649276ba)" style="fill: #9400d3"/>
   </g>
   <g id="patch_11">
    <path d="M 42.624 270 
L 278.347962 270 
" style="fill: none; stroke: #000000; stroke-width: 0.8; stroke-linejoin: miter; stroke-linecap: square"/>
   </g>
  </g>
  <g id="axes_2">
   <g id="patch_12">
    <path d="M 330.001346 270 
L 565.725308 270 
L 565.725308 -12.6 
L 330.001346 -12.6 
z
" style="fill: #ffffff"/>
   </g>
   <g id="matplotlib.axis_3">
    <g id="xtick_9">
     <g id="text_13">
      <!-- CLS 1 -->
      <g transform="translate(328.346938 315.228513) rotate(-45) scale(0.15 -0.15)">
       <use xlink:href="#DejaVuSans-43"/>
       <use xlink:href="#DejaVuSans-4c" x="69.824219"/>
       <use xlink:href="#DejaVuSans-53" x="125.537109"/>
       <use xlink:href="#DejaVuSans-20" x="189.013672"/>
       <use xlink:href="#DejaVuSans-31" x="220.800781"/>
      </g>
     </g>
    </g>
    <g id="xtick_10">
     <g id="text_14">
      <!-- CLS 2 -->
      <g transform="translate(356.177394 315.228513) rotate(-45) scale(0.15 -0.15)">
       <use xlink:href="#DejaVuSans-43"/>
       <use xlink:href="#DejaVuSans-4c" x="69.824219"/>
       <use xlink:href="#DejaVuSans-53" x="125.537109"/>
       <use xlink:href="#DejaVuSans-20" x="189.013672"/>
       <use xlink:href="#DejaVuSans-32" x="220.800781"/>
      </g>
     </g>
    </g>
    <g id="xtick_11">
     <g id="text_15">
      <!-- CLS 3 -->
      <g transform="translate(384.00785 315.228513) rotate(-45) scale(0.15 -0.15)">
       <use xlink:href="#DejaVuSans-43"/>
       <use xlink:href="#DejaVuSans-4c" x="69.824219"/>
       <use xlink:href="#DejaVuSans-53" x="125.537109"/>
       <use xlink:href="#DejaVuSans-20" x="189.013672"/>
       <use xlink:href="#DejaVuSans-33" x="220.800781"/>
      </g>
     </g>
    </g>
    <g id="xtick_12">
     <g id="text_16">
      <!-- CLS 4 -->
      <g transform="translate(411.838306 315.228513) rotate(-45) scale(0.15 -0.15)">
       <use xlink:href="#DejaVuSans-43"/>
       <use xlink:href="#DejaVuSans-4c" x="69.824219"/>
       <use xlink:href="#DejaVuSans-53" x="125.537109"/>
       <use xlink:href="#DejaVuSans-20" x="189.013672"/>
       <use xlink:href="#DejaVuSans-34" x="220.800781"/>
      </g>
     </g>
    </g>
    <g id="xtick_13">
     <g id="text_17">
      <!-- CLS 5 -->
      <g transform="translate(439.668762 315.228513) rotate(-45) scale(0.15 -0.15)">
       <use xlink:href="#DejaVuSans-43"/>
       <use xlink:href="#DejaVuSans-4c" x="69.824219"/>
       <use xlink:href="#DejaVuSans-53" x="125.537109"/>
       <use xlink:href="#DejaVuSans-20" x="189.013672"/>
       <use xlink:href="#DejaVuSans-35" x="220.800781"/>
      </g>
     </g>
    </g>
    <g id="xtick_14">
     <g id="text_18">
      <!-- CLS 6 -->
      <g transform="translate(467.499218 315.228513) rotate(-45) scale(0.15 -0.15)">
       <use xlink:href="#DejaVuSans-43"/>
       <use xlink:href="#DejaVuSans-4c" x="69.824219"/>
       <use xlink:href="#DejaVuSans-53" x="125.537109"/>
       <use xlink:href="#DejaVuSans-20" x="189.013672"/>
       <use xlink:href="#DejaVuSans-36" x="220.800781"/>
      </g>
     </g>
    </g>
    <g id="xtick_15">
     <g id="text_19">
      <!-- CLS 7 -->
      <g transform="translate(495.329674 315.228513) rotate(-45) scale(0.15 -0.15)">
       <use xlink:href="#DejaVuSans-43"/>
       <use xlink:href="#DejaVuSans-4c" x="69.824219"/>
       <use xlink:href="#DejaVuSans-53" x="125.537109"/>
       <use xlink:href="#DejaVuSans-20" x="189.013672"/>
       <use xlink:href="#DejaVuSans-37" x="220.800781"/>
      </g>
     </g>
    </g>
    <g id="xtick_16">
     <g id="text_20">
      <!-- CLS 8 -->
      <g transform="translate(523.16013 315.228513) rotate(-45) scale(0.15 -0.15)">
       <use xlink:href="#DejaVuSans-43"/>
       <use xlink:href="#DejaVuSans-4c" x="69.824219"/>
       <use xlink:href="#DejaVuSans-53" x="125.537109"/>
       <use xlink:href="#DejaVuSans-20" x="189.013672"/>
       <use xlink:href="#DejaVuSans-38" x="220.800781"/>
      </g>
     </g>
    </g>
   </g>
   <g id="matplotlib.axis_4">
    <g id="ytick_5">
     <g id="line2d_5">
      <path d="M 330.001346 213.48 
L 565.725308 213.48 
" clip-path="url(#pc2578aa02d)" style="fill: none; stroke: #808080; stroke-width: 0.3; stroke-linecap: square"/>
     </g>
     <g id="text_21">
      <!-- 0.75 -->
      <g transform="translate(289.602908 219.178828) scale(0.15 -0.15)">
       <use xlink:href="#DejaVuSans-30"/>
       <use xlink:href="#DejaVuSans-2e" x="63.623047"/>
       <use xlink:href="#DejaVuSans-37" x="95.410156"/>
       <use xlink:href="#DejaVuSans-35" x="159.033203"/>
      </g>
     </g>
    </g>
    <g id="ytick_6">
     <g id="line2d_6">
      <path d="M 330.001346 156.96 
L 565.725308 156.96 
" clip-path="url(#pc2578aa02d)" style="fill: none; stroke: #808080; stroke-width: 0.3; stroke-linecap: square"/>
     </g>
     <g id="text_22">
      <!-- 0.80 -->
      <g transform="translate(289.602908 162.658828) scale(0.15 -0.15)">
       <use xlink:href="#DejaVuSans-30"/>
       <use xlink:href="#DejaVuSans-2e" x="63.623047"/>
       <use xlink:href="#DejaVuSans-38" x="95.410156"/>
       <use xlink:href="#DejaVuSans-30" x="159.033203"/>
      </g>
     </g>
    </g>
    <g id="ytick_7">
     <g id="line2d_7">
      <path d="M 330.001346 100.44 
L 565.725308 100.44 
" clip-path="url(#pc2578aa02d)" style="fill: none; stroke: #808080; stroke-width: 0.3; stroke-linecap: square"/>
     </g>
     <g id="text_23">
      <!-- 0.85 -->
      <g transform="translate(289.602908 106.138828) scale(0.15 -0.15)">
       <use xlink:href="#DejaVuSans-30"/>
       <use xlink:href="#DejaVuSans-2e" x="63.623047"/>
       <use xlink:href="#DejaVuSans-38" x="95.410156"/>
       <use xlink:href="#DejaVuSans-35" x="159.033203"/>
      </g>
     </g>
    </g>
    <g id="ytick_8">
     <g id="line2d_8">
      <path d="M 330.001346 43.92 
L 565.725308 43.92 
" clip-path="url(#pc2578aa02d)" style="fill: none; stroke: #808080; stroke-width: 0.3; stroke-linecap: square"/>
     </g>
     <g id="text_24">
      <!-- 0.90 -->
      <g transform="translate(289.602908 49.618828) scale(0.15 -0.15)">
       <use xlink:href="#DejaVuSans-30"/>
       <use xlink:href="#DejaVuSans-2e" x="63.623047"/>
       <use xlink:href="#DejaVuSans-39" x="95.410156"/>
       <use xlink:href="#DejaVuSans-30" x="159.033203"/>
      </g>
     </g>
    </g>
   </g>
   <g id="patch_13">
    <path d="M 340.716071 1061.28 
L 360.197391 1061.28 
L 360.197391 145.656 
L 340.716071 145.656 
z
" clip-path="url(#pc2578aa02d)" style="fill: #ff7f50"/>
   </g>
   <g id="patch_14">
    <path d="M 368.546527 1061.28 
L 388.027847 1061.28 
L 388.027847 145.656 
L 368.546527 145.656 
z
" clip-path="url(#pc2578aa02d)" style="fill: #ff7f50"/>
   </g>
   <g id="patch_15">
    <path d="M 396.376983 1061.28 
L 415.858303 1061.28 
L 415.858303 156.96 
L 396.376983 156.96 
z
" clip-path="url(#pc2578aa02d)" style="fill: #ff7f50"/>
   </g>
   <g id="patch_16">
    <path d="M 424.207439 1061.28 
L 443.688759 1061.28 
L 443.688759 66.528 
L 424.207439 66.528 
z
" clip-path="url(#pc2578aa02d)" style="fill: #ff7f50"/>
   </g>
   <g id="patch_17">
    <path d="M 452.037895 1061.28 
L 471.519215 1061.28 
L 471.519215 77.832 
L 452.037895 77.832 
z
" clip-path="url(#pc2578aa02d)" style="fill: #ff7f50"/>
   </g>
   <g id="patch_18">
    <path d="M 479.868351 1061.28 
L 499.349671 1061.28 
L 499.349671 134.352 
L 479.868351 134.352 
z
" clip-path="url(#pc2578aa02d)" style="fill: #ff7f50"/>
   </g>
   <g id="patch_19">
    <path d="M 507.698807 1061.28 
L 527.180127 1061.28 
L 527.180127 100.44 
L 507.698807 100.44 
z
" clip-path="url(#pc2578aa02d)" style="fill: #ff7f50"/>
   </g>
   <g id="patch_20">
    <path d="M 535.529264 1061.28 
L 555.010583 1061.28 
L 555.010583 55.224 
L 535.529264 55.224 
z
" clip-path="url(#pc2578aa02d)" style="fill: #ff7f50"/>
   </g>
   <g id="patch_21">
    <path d="M 330.001346 270 
L 565.725308 270 
" style="fill: none; stroke: #000000; stroke-width: 0.8; stroke-linejoin: miter; stroke-linecap: square"/>
   </g>
  </g>
  <g id="axes_3">
   <g id="patch_22">
    <path d="M 617.378692 270 
L 853.102654 270 
L 853.102654 -12.6 
L 617.378692 -12.6 
z
" style="fill: #ffffff"/>
   </g>
   <g id="matplotlib.axis_5">
    <g id="xtick_17">
     <g id="text_25">
      <!-- CLS 1 -->
      <g transform="translate(615.724284 315.228513) rotate(-45) scale(0.15 -0.15)">
       <use xlink:href="#DejaVuSans-43"/>
       <use xlink:href="#DejaVuSans-4c" x="69.824219"/>
       <use xlink:href="#DejaVuSans-53" x="125.537109"/>
       <use xlink:href="#DejaVuSans-20" x="189.013672"/>
       <use xlink:href="#DejaVuSans-31" x="220.800781"/>
      </g>
     </g>
    </g>
    <g id="xtick_18">
     <g id="text_26">
      <!-- CLS 2 -->
      <g transform="translate(643.55474 315.228513) rotate(-45) scale(0.15 -0.15)">
       <use xlink:href="#DejaVuSans-43"/>
       <use xlink:href="#DejaVuSans-4c" x="69.824219"/>
       <use xlink:href="#DejaVuSans-53" x="125.537109"/>
       <use xlink:href="#DejaVuSans-20" x="189.013672"/>
       <use xlink:href="#DejaVuSans-32" x="220.800781"/>
      </g>
     </g>
    </g>
    <g id="xtick_19">
     <g id="text_27">
      <!-- CLS 3 -->
      <g transform="translate(671.385196 315.228513) rotate(-45) scale(0.15 -0.15)">
       <use xlink:href="#DejaVuSans-43"/>
       <use xlink:href="#DejaVuSans-4c" x="69.824219"/>
       <use xlink:href="#DejaVuSans-53" x="125.537109"/>
       <use xlink:href="#DejaVuSans-20" x="189.013672"/>
       <use xlink:href="#DejaVuSans-33" x="220.800781"/>
      </g>
     </g>
    </g>
    <g id="xtick_20">
     <g id="text_28">
      <!-- CLS 4 -->
      <g transform="translate(699.215652 315.228513) rotate(-45) scale(0.15 -0.15)">
       <use xlink:href="#DejaVuSans-43"/>
       <use xlink:href="#DejaVuSans-4c" x="69.824219"/>
       <use xlink:href="#DejaVuSans-53" x="125.537109"/>
       <use xlink:href="#DejaVuSans-20" x="189.013672"/>
       <use xlink:href="#DejaVuSans-34" x="220.800781"/>
      </g>
     </g>
    </g>
    <g id="xtick_21">
     <g id="text_29">
      <!-- CLS 5 -->
      <g transform="translate(727.046108 315.228513) rotate(-45) scale(0.15 -0.15)">
       <use xlink:href="#DejaVuSans-43"/>
       <use xlink:href="#DejaVuSans-4c" x="69.824219"/>
       <use xlink:href="#DejaVuSans-53" x="125.537109"/>
       <use xlink:href="#DejaVuSans-20" x="189.013672"/>
       <use xlink:href="#DejaVuSans-35" x="220.800781"/>
      </g>
     </g>
    </g>
    <g id="xtick_22">
     <g id="text_30">
      <!-- CLS 6 -->
      <g transform="translate(754.876564 315.228513) rotate(-45) scale(0.15 -0.15)">
       <use xlink:href="#DejaVuSans-43"/>
       <use xlink:href="#DejaVuSans-4c" x="69.824219"/>
       <use xlink:href="#DejaVuSans-53" x="125.537109"/>
       <use xlink:href="#DejaVuSans-20" x="189.013672"/>
       <use xlink:href="#DejaVuSans-36" x="220.800781"/>
      </g>
     </g>
    </g>
    <g id="xtick_23">
     <g id="text_31">
      <!-- CLS 7 -->
      <g transform="translate(782.70702 315.228513) rotate(-45) scale(0.15 -0.15)">
       <use xlink:href="#DejaVuSans-43"/>
       <use xlink:href="#DejaVuSans-4c" x="69.824219"/>
       <use xlink:href="#DejaVuSans-53" x="125.537109"/>
       <use xlink:href="#DejaVuSans-20" x="189.013672"/>
       <use xlink:href="#DejaVuSans-37" x="220.800781"/>
      </g>
     </g>
    </g>
    <g id="xtick_24">
     <g id="text_32">
      <!-- CLS 8 -->
      <g transform="translate(810.537476 315.228513) rotate(-45) scale(0.15 -0.15)">
       <use xlink:href="#DejaVuSans-43"/>
       <use xlink:href="#DejaVuSans-4c" x="69.824219"/>
       <use xlink:href="#DejaVuSans-53" x="125.537109"/>
       <use xlink:href="#DejaVuSans-20" x="189.013672"/>
       <use xlink:href="#DejaVuSans-38" x="220.800781"/>
      </g>
     </g>
    </g>
   </g>
   <g id="matplotlib.axis_6">
    <g id="ytick_9">
     <g id="line2d_9">
      <path d="M 617.378692 213.48 
L 853.102654 213.48 
" clip-path="url(#pd94fcbf2a4)" style="fill: none; stroke: #808080; stroke-width: 0.3; stroke-linecap: square"/>
     </g>
     <g id="text_33">
      <!-- 0.75 -->
      <g transform="translate(576.980254 219.178828) scale(0.15 -0.15)">
       <use xlink:href="#DejaVuSans-30"/>
       <use xlink:href="#DejaVuSans-2e" x="63.623047"/>
       <use xlink:href="#DejaVuSans-37" x="95.410156"/>
       <use xlink:href="#DejaVuSans-35" x="159.033203"/>
      </g>
     </g>
    </g>
    <g id="ytick_10">
     <g id="line2d_10">
      <path d="M 617.378692 156.96 
L 853.102654 156.96 
" clip-path="url(#pd94fcbf2a4)" style="fill: none; stroke: #808080; stroke-width: 0.3; stroke-linecap: square"/>
     </g>
     <g id="text_34">
      <!-- 0.80 -->
      <g transform="translate(576.980254 162.658828) scale(0.15 -0.15)">
       <use xlink:href="#DejaVuSans-30"/>
       <use xlink:href="#DejaVuSans-2e" x="63.623047"/>
       <use xlink:href="#DejaVuSans-38" x="95.410156"/>
       <use xlink:href="#DejaVuSans-30" x="159.033203"/>
      </g>
     </g>
    </g>
    <g id="ytick_11">
     <g id="line2d_11">
      <path d="M 617.378692 100.44 
L 853.102654 100.44 
" clip-path="url(#pd94fcbf2a4)" style="fill: none; stroke: #808080; stroke-width: 0.3; stroke-linecap: square"/>
     </g>
     <g id="text_35">
      <!-- 0.85 -->
      <g transform="translate(576.980254 106.138828) scale(0.15 -0.15)">
       <use xlink:href="#DejaVuSans-30"/>
       <use xlink:href="#DejaVuSans-2e" x="63.623047"/>
       <use xlink:href="#DejaVuSans-38" x="95.410156"/>
       <use xlink:href="#DejaVuSans-35" x="159.033203"/>
      </g>
     </g>
    </g>
    <g id="ytick_12">
     <g id="line2d_12">
      <path d="M 617.378692 43.92 
L 853.102654 43.92 
" clip-path="url(#pd94fcbf2a4)" style="fill: none; stroke: #808080; stroke-width: 0.3; stroke-linecap: square"/>
     </g>
     <g id="text_36">
      <!-- 0.90 -->
      <g transform="translate(576.980254 49.618828) scale(0.15 -0.15)">
       <use xlink:href="#DejaVuSans-30"/>
       <use xlink:href="#DejaVuSans-2e" x="63.623047"/>
       <use xlink:href="#DejaVuSans-39" x="95.410156"/>
       <use xlink:href="#DejaVuSans-30" x="159.033203"/>
      </g>
     </g>
    </g>
   </g>
   <g id="patch_23">
    <path d="M 628.093417 1061.28 
L 647.574736 1061.28 
L 647.574736 156.96 
L 628.093417 156.96 
z
" clip-path="url(#pd94fcbf2a4)" style="fill: #800000"/>
   </g>
   <g id="patch_24">
    <path d="M 655.923873 1061.28 
L 675.405193 1061.28 
L 675.405193 43.92 
L 655.923873 43.92 
z
" clip-path="url(#pd94fcbf2a4)" style="fill: #800000"/>
   </g>
   <g id="patch_25">
    <path d="M 683.754329 1061.28 
L 703.235649 1061.28 
L 703.235649 156.96 
L 683.754329 156.96 
z
" clip-path="url(#pd94fcbf2a4)" style="fill: #800000"/>
   </g>
   <g id="patch_26">
    <path d="M 711.584785 1061.28 
L 731.066105 1061.28 
L 731.066105 123.048 
L 711.584785 123.048 
z
" clip-path="url(#pd94fcbf2a4)" style="fill: #800000"/>
   </g>
   <g id="patch_27">
    <path d="M 739.415241 1061.28 
L 758.896561 1061.28 
L 758.896561 55.224 
L 739.415241 55.224 
z
" clip-path="url(#pd94fcbf2a4)" style="fill: #800000"/>
   </g>
   <g id="patch_28">
    <path d="M 767.245697 1061.28 
L 786.727017 1061.28 
L 786.727017 32.616 
L 767.245697 32.616 
z
" clip-path="url(#pd94fcbf2a4)" style="fill: #800000"/>
   </g>
   <g id="patch_29">
    <path d="M 795.076153 1061.28 
L 814.557473 1061.28 
L 814.557473 145.656 
L 795.076153 145.656 
z
" clip-path="url(#pd94fcbf2a4)" style="fill: #800000"/>
   </g>
   <g id="patch_30">
    <path d="M 822.906609 1061.28 
L 842.387929 1061.28 
L 842.387929 111.744 
L 822.906609 111.744 
z
" clip-path="url(#pd94fcbf2a4)" style="fill: #800000"/>
   </g>
   <g id="patch_31">
    <path d="M 617.378692 270 
L 853.102654 270 
" style="fill: none; stroke: #000000; stroke-width: 0.8; stroke-linejoin: miter; stroke-linecap: square"/>
   </g>
  </g>
  <g id="axes_4">
   <g id="patch_32">
    <path d="M 904.756038 270 
L 1140.48 270 
L 1140.48 -12.6 
L 904.756038 -12.6 
z
" style="fill: #ffffff"/>
   </g>
   <g id="matplotlib.axis_7">
    <g id="xtick_25">
     <g id="text_37">
      <!-- CLS 1 -->
      <g transform="translate(903.10163 315.228513) rotate(-45) scale(0.15 -0.15)">
       <use xlink:href="#DejaVuSans-43"/>
       <use xlink:href="#DejaVuSans-4c" x="69.824219"/>
       <use xlink:href="#DejaVuSans-53" x="125.537109"/>
       <use xlink:href="#DejaVuSans-20" x="189.013672"/>
       <use xlink:href="#DejaVuSans-31" x="220.800781"/>
      </g>
     </g>
    </g>
    <g id="xtick_26">
     <g id="text_38">
      <!-- CLS 2 -->
      <g transform="translate(930.932086 315.228513) rotate(-45) scale(0.15 -0.15)">
       <use xlink:href="#DejaVuSans-43"/>
       <use xlink:href="#DejaVuSans-4c" x="69.824219"/>
       <use xlink:href="#DejaVuSans-53" x="125.537109"/>
       <use xlink:href="#DejaVuSans-20" x="189.013672"/>
       <use xlink:href="#DejaVuSans-32" x="220.800781"/>
      </g>
     </g>
    </g>
    <g id="xtick_27">
     <g id="text_39">
      <!-- CLS 3 -->
      <g transform="translate(958.762542 315.228513) rotate(-45) scale(0.15 -0.15)">
       <use xlink:href="#DejaVuSans-43"/>
       <use xlink:href="#DejaVuSans-4c" x="69.824219"/>
       <use xlink:href="#DejaVuSans-53" x="125.537109"/>
       <use xlink:href="#DejaVuSans-20" x="189.013672"/>
       <use xlink:href="#DejaVuSans-33" x="220.800781"/>
      </g>
     </g>
    </g>
    <g id="xtick_28">
     <g id="text_40">
      <!-- CLS 4 -->
      <g transform="translate(986.592998 315.228513) rotate(-45) scale(0.15 -0.15)">
       <use xlink:href="#DejaVuSans-43"/>
       <use xlink:href="#DejaVuSans-4c" x="69.824219"/>
       <use xlink:href="#DejaVuSans-53" x="125.537109"/>
       <use xlink:href="#DejaVuSans-20" x="189.013672"/>
       <use xlink:href="#DejaVuSans-34" x="220.800781"/>
      </g>
     </g>
    </g>
    <g id="xtick_29">
     <g id="text_41">
      <!-- CLS 5 -->
      <g transform="translate(1014.423454 315.228513) rotate(-45) scale(0.15 -0.15)">
       <use xlink:href="#DejaVuSans-43"/>
       <use xlink:href="#DejaVuSans-4c" x="69.824219"/>
       <use xlink:href="#DejaVuSans-53" x="125.537109"/>
       <use xlink:href="#DejaVuSans-20" x="189.013672"/>
       <use xlink:href="#DejaVuSans-35" x="220.800781"/>
      </g>
     </g>
    </g>
    <g id="xtick_30">
     <g id="text_42">
      <!-- CLS 6 -->
      <g transform="translate(1042.25391 315.228513) rotate(-45) scale(0.15 -0.15)">
       <use xlink:href="#DejaVuSans-43"/>
       <use xlink:href="#DejaVuSans-4c" x="69.824219"/>
       <use xlink:href="#DejaVuSans-53" x="125.537109"/>
       <use xlink:href="#DejaVuSans-20" x="189.013672"/>
       <use xlink:href="#DejaVuSans-36" x="220.800781"/>
      </g>
     </g>
    </g>
    <g id="xtick_31">
     <g id="text_43">
      <!-- CLS 7 -->
      <g transform="translate(1070.084366 315.228513) rotate(-45) scale(0.15 -0.15)">
       <use xlink:href="#DejaVuSans-43"/>
       <use xlink:href="#DejaVuSans-4c" x="69.824219"/>
       <use xlink:href="#DejaVuSans-53" x="125.537109"/>
       <use xlink:href="#DejaVuSans-20" x="189.013672"/>
       <use xlink:href="#DejaVuSans-37" x="220.800781"/>
      </g>
     </g>
    </g>
    <g id="xtick_32">
     <g id="text_44">
      <!-- CLS 8 -->
      <g transform="translate(1097.914822 315.228513) rotate(-45) scale(0.15 -0.15)">
       <use xlink:href="#DejaVuSans-43"/>
       <use xlink:href="#DejaVuSans-4c" x="69.824219"/>
       <use xlink:href="#DejaVuSans-53" x="125.537109"/>
       <use xlink:href="#DejaVuSans-20" x="189.013672"/>
       <use xlink:href="#DejaVuSans-38" x="220.800781"/>
      </g>
     </g>
    </g>
   </g>
   <g id="matplotlib.axis_8">
    <g id="ytick_13">
     <g id="line2d_13">
      <path d="M 904.756038 213.48 
L 1140.48 213.48 
" clip-path="url(#p0c77860013)" style="fill: none; stroke: #808080; stroke-width: 0.3; stroke-linecap: square"/>
     </g>
     <g id="text_45">
      <!-- 0.75 -->
      <g transform="translate(864.3576 219.178828) scale(0.15 -0.15)">
       <use xlink:href="#DejaVuSans-30"/>
       <use xlink:href="#DejaVuSans-2e" x="63.623047"/>
       <use xlink:href="#DejaVuSans-37" x="95.410156"/>
       <use xlink:href="#DejaVuSans-35" x="159.033203"/>
      </g>
     </g>
    </g>
    <g id="ytick_14">
     <g id="line2d_14">
      <path d="M 904.756038 156.96 
L 1140.48 156.96 
" clip-path="url(#p0c77860013)" style="fill: none; stroke: #808080; stroke-width: 0.3; stroke-linecap: square"/>
     </g>
     <g id="text_46">
      <!-- 0.80 -->
      <g transform="translate(864.3576 162.658828) scale(0.15 -0.15)">
       <use xlink:href="#DejaVuSans-30"/>
       <use xlink:href="#DejaVuSans-2e" x="63.623047"/>
       <use xlink:href="#DejaVuSans-38" x="95.410156"/>
       <use xlink:href="#DejaVuSans-30" x="159.033203"/>
      </g>
     </g>
    </g>
    <g id="ytick_15">
     <g id="line2d_15">
      <path d="M 904.756038 100.44 
L 1140.48 100.44 
" clip-path="url(#p0c77860013)" style="fill: none; stroke: #808080; stroke-width: 0.3; stroke-linecap: square"/>
     </g>
     <g id="text_47">
      <!-- 0.85 -->
      <g transform="translate(864.3576 106.138828) scale(0.15 -0.15)">
       <use xlink:href="#DejaVuSans-30"/>
       <use xlink:href="#DejaVuSans-2e" x="63.623047"/>
       <use xlink:href="#DejaVuSans-38" x="95.410156"/>
       <use xlink:href="#DejaVuSans-35" x="159.033203"/>
      </g>
     </g>
    </g>
    <g id="ytick_16">
     <g id="line2d_16">
      <path d="M 904.756038 43.92 
L 1140.48 43.92 
" clip-path="url(#p0c77860013)" style="fill: none; stroke: #808080; stroke-width: 0.3; stroke-linecap: square"/>
     </g>
     <g id="text_48">
      <!-- 0.90 -->
      <g transform="translate(864.3576 49.618828) scale(0.15 -0.15)">
       <use xlink:href="#DejaVuSans-30"/>
       <use xlink:href="#DejaVuSans-2e" x="63.623047"/>
       <use xlink:href="#DejaVuSans-39" x="95.410156"/>
       <use xlink:href="#DejaVuSans-30" x="159.033203"/>
      </g>
     </g>
    </g>
   </g>
   <g id="patch_33">
    <path d="M 915.470763 1061.28 
L 934.952082 1061.28 
L 934.952082 32.616 
L 915.470763 32.616 
z
" clip-path="url(#p0c77860013)" style="fill: #4682b4"/>
   </g>
   <g id="patch_34">
    <path d="M 943.301219 1061.28 
L 962.782538 1061.28 
L 962.782538 32.616 
L 943.301219 32.616 
z
" clip-path="url(#p0c77860013)" style="fill: #4682b4"/>
   </g>
   <g id="patch_35">
    <path d="M 971.131675 1061.28 
L 990.612994 1061.28 
L 990.612994 145.656 
L 971.131675 145.656 
z
" clip-path="url(#p0c77860013)" style="fill: #4682b4"/>
   </g>
   <g id="patch_36">
    <path d="M 998.962131 1061.28 
L 1018.44345 1061.28 
L 1018.44345 32.616 
L 998.962131 32.616 
z
" clip-path="url(#p0c77860013)" style="fill: #4682b4"/>
   </g>
   <g id="patch_37">
    <path d="M 1026.792587 1061.28 
L 1046.273906 1061.28 
L 1046.273906 111.744 
L 1026.792587 111.744 
z
" clip-path="url(#p0c77860013)" style="fill: #4682b4"/>
   </g>
   <g id="patch_38">
    <path d="M 1054.623043 1061.28 
L 1074.104362 1061.28 
L 1074.104362 89.136 
L 1054.623043 89.136 
z
" clip-path="url(#p0c77860013)" style="fill: #4682b4"/>
   </g>
   <g id="patch_39">
    <path d="M 1082.453499 1061.28 
L 1101.934818 1061.28 
L 1101.934818 145.656 
L 1082.453499 145.656 
z
" clip-path="url(#p0c77860013)" style="fill: #4682b4"/>
   </g>
   <g id="patch_40">
    <path d="M 1110.283955 1061.28 
L 1129.765274 1061.28 
L 1129.765274 21.312 
L 1110.283955 21.312 
z
" clip-path="url(#p0c77860013)" style="fill: #4682b4"/>
   </g>
   <g id="patch_41">
    <path d="M 904.756038 270 
L 1140.48 270 
" style="fill: none; stroke: #000000; stroke-width: 0.8; stroke-linejoin: miter; stroke-linecap: square"/>
   </g>
  </g>
  <g id="legend_1">
   <g id="patch_42">
    <path d="M 334.22625 354.020625 
L 943.56 354.020625 
Q 947.16 354.020625 947.16 350.420625 
L 947.16 325.8 
Q 947.16 322.2 943.56 322.2 
L 334.22625 322.2 
Q 330.62625 322.2 330.62625 325.8 
L 330.62625 350.420625 
Q 330.62625 354.020625 334.22625 354.020625 
z
" style="fill: #ffffff; opacity: 0.8; stroke: #cccccc; stroke-linejoin: miter"/>
   </g>
   <g id="line2d_17">
    <path d="M 337.82625 336.777187 
L 355.82625 336.777187 
L 373.82625 336.777187 
" style="fill: none; stroke: #9400d3; stroke-width: 6; stroke-linecap: square"/>
   </g>
   <g id="text_49">
    <!-- Metric 0 -->
    <g transform="translate(388.22625 343.077187) scale(0.18 -0.18)">
     <defs>
      <path id="DejaVuSans-4d" d="M 628 4666 
L 1569 4666 
L 2759 1491 
L 3956 4666 
L 4897 4666 
L 4897 0 
L 4281 0 
L 4281 4097 
L 3078 897 
L 2444 897 
L 1241 4097 
L 1241 0 
L 628 0 
L 628 4666 
z
" transform="scale(0.015625)"/>
      <path id="DejaVuSans-65" d="M 3597 1894 
L 3597 1613 
L 953 1613 
Q 991 1019 1311 708 
Q 1631 397 2203 397 
Q 2534 397 2845 478 
Q 3156 559 3463 722 
L 3463 178 
Q 3153 47 2828 -22 
Q 2503 -91 2169 -91 
Q 1331 -91 842 396 
Q 353 884 353 1716 
Q 353 2575 817 3079 
Q 1281 3584 2069 3584 
Q 2775 3584 3186 3129 
Q 3597 2675 3597 1894 
z
M 3022 2063 
Q 3016 2534 2758 2815 
Q 2500 3097 2075 3097 
Q 1594 3097 1305 2825 
Q 1016 2553 972 2059 
L 3022 2063 
z
" transform="scale(0.015625)"/>
      <path id="DejaVuSans-74" d="M 1172 4494 
L 1172 3500 
L 2356 3500 
L 2356 3053 
L 1172 3053 
L 1172 1153 
Q 1172 725 1289 603 
Q 1406 481 1766 481 
L 2356 481 
L 2356 0 
L 1766 0 
Q 1100 0 847 248 
Q 594 497 594 1153 
L 594 3053 
L 172 3053 
L 172 3500 
L 594 3500 
L 594 4494 
L 1172 4494 
z
" transform="scale(0.015625)"/>
      <path id="DejaVuSans-72" d="M 2631 2963 
Q 2534 3019 2420 3045 
Q 2306 3072 2169 3072 
Q 1681 3072 1420 2755 
Q 1159 2438 1159 1844 
L 1159 0 
L 581 0 
L 581 3500 
L 1159 3500 
L 1159 2956 
Q 1341 3275 1631 3429 
Q 1922 3584 2338 3584 
Q 2397 3584 2469 3576 
Q 2541 3569 2628 3553 
L 2631 2963 
z
" transform="scale(0.015625)"/>
      <path id="DejaVuSans-69" d="M 603 3500 
L 1178 3500 
L 1178 0 
L 603 0 
L 603 3500 
z
M 603 4863 
L 1178 4863 
L 1178 4134 
L 603 4134 
L 603 4863 
z
" transform="scale(0.015625)"/>
      <path id="DejaVuSans-63" d="M 3122 3366 
L 3122 2828 
Q 2878 2963 2633 3030 
Q 2388 3097 2138 3097 
Q 1578 3097 1268 2742 
Q 959 2388 959 1747 
Q 959 1106 1268 751 
Q 1578 397 2138 397 
Q 2388 397 2633 464 
Q 2878 531 3122 666 
L 3122 134 
Q 2881 22 2623 -34 
Q 2366 -91 2075 -91 
Q 1284 -91 818 406 
Q 353 903 353 1747 
Q 353 2603 823 3093 
Q 1294 3584 2113 3584 
Q 2378 3584 2631 3529 
Q 2884 3475 3122 3366 
z
" transform="scale(0.015625)"/>
     </defs>
     <use xlink:href="#DejaVuSans-4d"/>
     <use xlink:href="#DejaVuSans-65" x="86.279297"/>
     <use xlink:href="#DejaVuSans-74" x="147.802734"/>
     <use xlink:href="#DejaVuSans-72" x="187.011719"/>
     <use xlink:href="#DejaVuSans-69" x="228.125"/>
     <use xlink:href="#DejaVuSans-63" x="255.908203"/>
     <use xlink:href="#DejaVuSans-20" x="310.888672"/>
     <use xlink:href="#DejaVuSans-30" x="342.675781"/>
    </g>
   </g>
   <g id="line2d_18">
    <path d="M 497.359688 336.777187 
L 515.359688 336.777187 
L 533.359688 336.777187 
" style="fill: none; stroke: #ff7f50; stroke-width: 6; stroke-linecap: square"/>
   </g>
   <g id="text_50">
    <!-- Metric 1 -->
    <g transform="translate(547.759688 343.077187) scale(0.18 -0.18)">
     <use xlink:href="#DejaVuSans-4d"/>
     <use xlink:href="#DejaVuSans-65" x="86.279297"/>
     <use xlink:href="#DejaVuSans-74" x="147.802734"/>
     <use xlink:href="#DejaVuSans-72" x="187.011719"/>
     <use xlink:href="#DejaVuSans-69" x="228.125"/>
     <use xlink:href="#DejaVuSans-63" x="255.908203"/>
     <use xlink:href="#DejaVuSans-20" x="310.888672"/>
     <use xlink:href="#DejaVuSans-31" x="342.675781"/>
    </g>
   </g>
   <g id="line2d_19">
    <path d="M 656.893125 336.777187 
L 674.893125 336.777187 
L 692.893125 336.777187 
" style="fill: none; stroke: #800000; stroke-width: 6; stroke-linecap: square"/>
   </g>
   <g id="text_51">
    <!-- Metric 2 -->
    <g transform="translate(707.293125 343.077187) scale(0.18 -0.18)">
     <use xlink:href="#DejaVuSans-4d"/>
     <use xlink:href="#DejaVuSans-65" x="86.279297"/>
     <use xlink:href="#DejaVuSans-74" x="147.802734"/>
     <use xlink:href="#DejaVuSans-72" x="187.011719"/>
     <use xlink:href="#DejaVuSans-69" x="228.125"/>
     <use xlink:href="#DejaVuSans-63" x="255.908203"/>
     <use xlink:href="#DejaVuSans-20" x="310.888672"/>
     <use xlink:href="#DejaVuSans-32" x="342.675781"/>
    </g>
   </g>
   <g id="line2d_20">
    <path d="M 816.426563 336.777187 
L 834.426563 336.777187 
L 852.426563 336.777187 
" style="fill: none; stroke: #4682b4; stroke-width: 6; stroke-linecap: square"/>
   </g>
   <g id="text_52">
    <!-- Metric 3 -->
    <g transform="translate(866.826563 343.077187) scale(0.18 -0.18)">
     <use xlink:href="#DejaVuSans-4d"/>
     <use xlink:href="#DejaVuSans-65" x="86.279297"/>
     <use xlink:href="#DejaVuSans-74" x="147.802734"/>
     <use xlink:href="#DejaVuSans-72" x="187.011719"/>
     <use xlink:href="#DejaVuSans-69" x="228.125"/>
     <use xlink:href="#DejaVuSans-63" x="255.908203"/>
     <use xlink:href="#DejaVuSans-20" x="310.888672"/>
     <use xlink:href="#DejaVuSans-33" x="342.675781"/>
    </g>
   </g>
  </g>
 </g>
 <defs>
  <clipPath id="p39649276ba">
   <rect x="42.624" y="-12.6" width="235.723962" height="282.6"/>
  </clipPath>
  <clipPath id="pc2578aa02d">
   <rect x="330.001346" y="-12.6" width="235.723962" height="282.6"/>
  </clipPath>
  <clipPath id="pd94fcbf2a4">
   <rect x="617.378692" y="-12.6" width="235.723962" height="282.6"/>
  </clipPath>
  <clipPath id="p0c77860013">
   <rect x="904.756038" y="-12.6" width="235.723962" height="282.6"/>
  </clipPath>
 </defs>
</svg>
